<?xml version="1.0" encoding="UTF-8" standalone="no"?>
<!-- Created with Inkscape (http://www.inkscape.org/) -->

<svg
   xmlns:dc="http://purl.org/dc/elements/1.1/"
   xmlns:cc="http://creativecommons.org/ns#"
   xmlns:rdf="http://www.w3.org/1999/02/22-rdf-syntax-ns#"
   xmlns:svg="http://www.w3.org/2000/svg"
   xmlns="http://www.w3.org/2000/svg"
   xmlns:sodipodi="http://sodipodi.sourceforge.net/DTD/sodipodi-0.dtd"
   xmlns:inkscape="http://www.inkscape.org/namespaces/inkscape"
   width="744.09448819"
   height="1052.3622047"
   id="svg2"
   version="1.1"
   inkscape:version="0.48.3.1 r9886"
   sodipodi:docname="olaf.svg">
  <defs
     id="defs4">
    <inkscape:path-effect
       effect="spiro"
       id="path-effect2999"
       is_visible="true" />
    <inkscape:path-effect
       effect="spiro"
       id="path-effect2995"
       is_visible="true" />
  </defs>
  <sodipodi:namedview
     id="base"
     pagecolor="#ffffff"
     bordercolor="#666666"
     borderopacity="1.0"
     inkscape:pageopacity="0.0"
     inkscape:pageshadow="2"
     inkscape:zoom="5.6"
     inkscape:cx="252.57258"
     inkscape:cy="642.81806"
     inkscape:document-units="px"
     inkscape:current-layer="layer1"
     showgrid="false"
     inkscape:window-width="966"
     inkscape:window-height="1154"
     inkscape:window-x="0"
     inkscape:window-y="0"
     inkscape:window-maximized="0" />
  <metadata
     id="metadata7">
    <rdf:RDF>
      <cc:Work
         rdf:about="">
        <dc:format>image/svg+xml</dc:format>
        <dc:type
           rdf:resource="http://purl.org/dc/dcmitype/StillImage" />
        <dc:title></dc:title>
      </cc:Work>
    </rdf:RDF>
  </metadata>
  <g
     inkscape:label="Layer 1"
     inkscape:groupmode="layer"
     id="layer1">
    <flowRoot
       xml:space="preserve"
       id="flowRoot2985"
       style="font-size:14px;font-style:normal;font-variant:normal;font-weight:normal;font-stretch:normal;line-height:125%;letter-spacing:0px;word-spacing:0px;fill:#000000;fill-opacity:1;stroke:none;font-family:DejaVu Sans;-inkscape-font-specification:DejaVu Sans"
       inkscape:export-filename="/home/josh/devel/eggyknap_preso/dw-beginners-shower/img/olaf-name.png"
       inkscape:export-xdpi="90"
       inkscape:export-ydpi="90"><flowRegion
         id="flowRegion2987"><rect
           id="rect2989"
           width="520"
           height="185.71428"
           x="88.571426"
           y="318.07648" /></flowRegion><flowPara
         id="flowPara2991"
         style="font-size:64px;-inkscape-font-specification:DejaVu Sans;font-family:DejaVu Sans;font-weight:normal;font-style:normal;font-stretch:normal;font-variant:normal">Olaf</flowPara></flowRoot>    <path
       style="fill:none;stroke:#ff0808;stroke-width:5;stroke-linecap:butt;stroke-linejoin:miter;stroke-opacity:1;stroke-miterlimit:4;stroke-dasharray:none"
       d="m 201.25,341.11218 c 0.47968,0.43291 1.02304,0.79515 1.60714,1.07143 0.40984,0.19385 0.83859,0.34522 1.25,0.53571 0.96784,0.44813 1.83871,1.11186 2.85715,1.42858 0.69248,0.21535 1.4241,0.26072 2.14285,0.35714 1.19371,0.16013 2.36914,0.4644 3.57143,0.53571 0.60049,0.0356 1.20302,0.0127 1.80406,0.0374 0.60103,0.0247 1.2078,0.099 1.76737,0.31971 0.35213,0.13892 0.6934,0.33736 1.07143,0.35714 0.14933,0.008 0.29845,-0.013 0.44748,-0.0253 0.14903,-0.0123 0.30161,-0.0159 0.44538,0.0253 0.0438,0.0125 0.0874,0.0297 0.12199,0.0594 0.0173,0.0148 0.0321,0.0327 0.0423,0.0531 0.0102,0.0204 0.0156,0.0433 0.0143,0.0661 -0.001,0.0221 -0.009,0.0436 -0.0204,0.0624 -0.0115,0.0189 -0.0268,0.0353 -0.0439,0.0493 -0.0342,0.0281 -0.0749,0.0467 -0.11429,0.0668 -0.26564,0.13572 -0.48298,0.34736 -0.71429,0.53572 -0.33318,0.27132 -0.70037,0.49763 -1.07143,0.71428 -0.41443,0.24198 -0.83518,0.47298 -1.25,0.71429 -0.41486,0.24134 -0.82403,0.49313 -1.25,0.71428 -1.08953,0.56565 -2.27398,0.92345 -3.39286,1.42857 -0.60662,0.27386 -1.19278,0.5905 -1.78571,0.89286 -1.16346,0.59329 -2.35477,1.13242 -3.57143,1.60714 -0.44949,0.17538 -0.9052,0.34331 -1.31944,0.5907 -0.41425,0.24738 -0.78989,0.58308 -1.00199,1.01645 -0.10872,0.22214 -0.17234,0.46704 -0.17857,0.71428 -0.006,0.23846 0.0406,0.47923 0,0.71429 -0.0157,0.0909 -0.0442,0.17944 -0.0545,0.27107 -0.005,0.0458 -0.006,0.0924 0.002,0.13782 0.008,0.0454 0.0248,0.0897 0.0521,0.12682 0.0401,0.0546 0.10061,0.0912 0.1635,0.11652 0.0629,0.0253 0.12926,0.0408 0.19364,0.062 0.12673,0.0419 0.2451,0.10607 0.35715,0.17858 0.18028,0.11667 0.3464,0.25578 0.53571,0.35714 0.39909,0.21368 0.87042,0.24387 1.32267,0.22385 0.45225,-0.02 0.905,-0.0855 1.3559,-0.0453 0.60527,0.054 1.18109,0.29637 1.78572,0.35714 0.53328,0.0536 1.07117,0 1.60714,0 l 1.78571,0 c 0.42594,0 0.85198,0.054 1.25759,0.18404 0.2028,0.065 0.40326,0.13937 0.61147,0.1842 0.2082,0.0448 0.42946,0.0579 0.63094,-0.0111 0.0607,-0.0208 0.11955,-0.049 0.18307,-0.0577 0.0318,-0.004 0.0645,-0.004 0.0953,0.005 0.0308,0.009 0.0594,0.0267 0.0788,0.0523 0.0191,0.0252 0.0284,0.0573 0.0277,0.089 -6.8e-4,0.0316 -0.011,0.0627 -0.0277,0.0896 -0.0179,0.0289 -0.043,0.053 -0.0711,0.0722 -0.0281,0.0192 -0.0592,0.0336 -0.0912,0.0453 -0.0639,0.0235 -0.13131,0.0365 -0.19483,0.061 -0.10047,0.0387 -0.18781,0.10463 -0.27198,0.17177 -0.0842,0.0671 -0.16758,0.13694 -0.26373,0.18537 -0.10994,0.0554 -0.23229,0.0807 -0.35365,0.10127 -0.12137,0.0206 -0.24423,0.0373 -0.36064,0.0773 -0.18185,0.0625 -0.34027,0.17945 -0.48199,0.30943 -0.14171,0.12998 -0.26962,0.27436 -0.41086,0.40486 -0.31612,0.29208 -0.69295,0.50935 -1.07143,0.71428 -0.49493,0.26798 -1.00434,0.52301 -1.42857,0.89286 -0.4775,0.41628 -0.82505,0.95876 -1.25,1.42857 -0.68077,0.75264 -1.54833,1.30686 -2.32143,1.96429 -0.64173,0.54571 -1.21853,1.16288 -1.78572,1.78571 -1.25265,1.37552 -2.46775,2.78802 -3.57142,4.28572 -0.42834,0.58127 -0.84188,1.17888 -1.14604,1.83375 -0.30416,0.65486 -0.49642,1.37363 -0.46111,2.09482 0.0202,0.41226 0.11543,0.8224 0.29483,1.19413 0.1794,0.37172 0.44408,0.7042 0.7766,0.94873 0.32957,0.24235 0.71805,0.39432 1.11429,0.49604 0.39624,0.10172 0.8029,0.15548 1.20714,0.21824 1.32801,0.20619 2.63984,0.51167 3.92857,0.89286 0.70689,0.20909 1.41168,0.442 2.14286,0.53571 0.65252,0.0836 1.3181,0.0551 1.96428,0.17857 0.4181,0.0799 0.82166,0.22217 1.23626,0.31858 0.41459,0.0964 0.85185,0.14595 1.26374,0.0386 0.0551,-0.0144 0.10957,-0.0315 0.16535,-0.043 0.0558,-0.0115 0.11344,-0.0173 0.16976,-0.009 0.0563,0.009 0.11144,0.0325 0.15078,0.0736 0.0197,0.0206 0.0352,0.0453 0.0441,0.0724 0.009,0.027 0.0113,0.0564 0.006,0.0843 -0.009,0.0428 -0.0352,0.0803 -0.068,0.10914 -0.0328,0.0288 -0.0716,0.0498 -0.11056,0.0694 -0.33676,0.16986 -0.70753,0.25798 -1.07143,0.35714 -0.49182,0.13401 -0.98086,0.292 -1.42857,0.53572 -0.37723,0.20535 -0.71931,0.46835 -1.07143,0.71428 -0.14004,0.0978 -0.28237,0.19343 -0.40935,0.30769 -0.12697,0.11426 -0.23913,0.24897 -0.30494,0.4066 -0.0812,0.19441 -0.0874,0.41207 -0.0692,0.62196 0.0182,0.20988 0.0595,0.41759 0.0692,0.62804 0.0277,0.59876 -0.20072,1.18672 -0.17857,1.78571 0.0231,0.62431 0.3138,1.20173 0.53572,1.78572 0.24763,0.65163 0.41521,1.33459 0.71428,1.96428 0.60318,1.26999 1.69972,2.23755 2.85714,3.03572 0.46244,0.3189 0.93928,0.61692 1.42858,0.89285 l 1.96428,0.53572"
       id="path2993"
       inkscape:path-effect="#path-effect2995"
       inkscape:original-d="m 201.25,341.11218 c 0.90193,0.72155 0.6908,0.65491 1.60714,1.07143 0.41269,0.18758 0.84454,0.33298 1.25,0.53571 1.1049,0.55245 1.61052,1.0724 2.85715,1.42858 0.69627,0.19893 1.42536,0.2593 2.14285,0.35714 3.75529,0.51208 -0.18656,-0.21589 3.57143,0.53571 6.43627,1.28726 -2.80921,-0.44043 3.57143,0.35715 0.37356,0.0467 0.70104,0.28979 1.07143,0.35714 0.29282,0.0532 0.59929,-0.0489 0.89286,0 0.083,0.0138 0.17857,0.0944 0.17857,0.17857 0,0.0842 -0.11905,0.11905 -0.17857,0.17857 -0.48873,0.48873 0.2953,-0.27196 -0.71429,0.53572 -1.07156,0.85724 0.62541,-0.21127 -1.07143,0.71428 -0.4213,0.2298 -0.83333,0.47619 -1.25,0.71429 -0.41666,0.23809 -0.82077,0.49967 -1.25,0.71428 -1.88701,0.94351 -1.39742,0.53063 -3.39286,1.42857 -0.60688,0.2731 -1.17883,0.61976 -1.78571,0.89286 -4.80722,2.16325 1.28281,-0.81997 -3.57143,1.60714 -1.00224,0.50113 -1.68677,0.65516 -2.32143,1.60715 -0.13613,0.2042 -0.14813,0.47075 -0.17857,0.71428 -0.0295,0.23626 0,0.47619 0,0.71429 0,0.17857 -0.0799,0.37599 0,0.53571 0.0595,0.11905 0.2381,0.11905 0.35714,0.17857 0.11905,0.0595 0.24302,0.1101 0.35715,0.17858 0.18403,0.11041 0.33211,0.28927 0.53571,0.35714 1.045,0.34833 1.53032,0.0577 2.67857,0.17857 0.60369,0.0636 1.18203,0.2936 1.78572,0.35714 0.53277,0.0561 1.07143,0 1.60714,0 0.59524,0 1.19048,0 1.78571,0 2.44727,0 0.46909,-0.15058 2.5,0.35715 0.1155,0.0289 0.25067,-0.0532 0.35715,0 0.0532,0.0266 0.0421,0.13648 0,0.17857 -0.0941,0.0941 -0.24301,0.11009 -0.35715,0.17857 -0.18403,0.11042 -0.33845,0.2726 -0.53571,0.35714 -0.22558,0.0967 -0.49975,0.0594 -0.71429,0.17857 -0.33317,0.1851 -0.58461,0.49011 -0.89285,0.71429 -0.34714,0.25246 -0.71037,0.48217 -1.07143,0.71428 -0.47236,0.30366 -1.00422,0.52509 -1.42857,0.89286 -0.47816,0.41441 -0.79126,0.99277 -1.25,1.42857 -0.7349,0.69816 -1.57286,1.28081 -2.32143,1.96429 -0.62165,0.56759 -1.19048,1.19047 -1.78572,1.78571 -2.02317,2.02318 -2.05376,1.81951 -3.57142,4.28572 -0.63291,1.02846 -1.60715,2.57257 -1.60715,3.92857 0,0.58094 0.71029,1.78171 1.07143,2.14286 0.43768,0.43767 2.03658,0.63932 2.32143,0.71428 5.94284,1.56391 -2.86314,-0.52208 3.92857,0.89286 0.72079,0.15016 1.41748,0.40956 2.14286,0.53571 0.64774,0.11265 1.31487,0.076 1.96428,0.17857 2.8105,0.44377 0.18433,0.35715 2.5,0.35715 0.0697,0 0.53572,-0.0842 0.53572,0.17857 0,0.0842 -0.10853,0.13188 -0.17857,0.17857 -0.36725,0.24483 -0.61414,0.22649 -1.07143,0.35714 -0.33476,0.0956 -1.22101,0.4225 -1.42857,0.53572 -0.37682,0.20554 -0.73626,0.44614 -1.07143,0.71428 -0.26293,0.21035 -0.59922,0.39784 -0.71429,0.71429 -0.14239,0.39158 0.0245,0.83405 0,1.25 -0.0351,0.59717 -0.23809,1.19047 -0.17857,1.78571 0.0618,0.61837 0.3392,1.19616 0.53572,1.78572 0.22031,0.66095 0.36521,1.36133 0.71428,1.96428 0.28289,0.48863 2.55789,2.78927 2.85714,3.03572 0.43348,0.35698 0.90933,0.67905 1.42858,0.89285 1.73707,0.38602 1.11629,0.11172 1.96428,0.53572"
       inkscape:connector-curvature="0"
       inkscape:export-filename="/home/josh/devel/eggyknap_preso/dw-beginners-shower/img/olaf-name.png"
       inkscape:export-xdpi="90"
       inkscape:export-ydpi="90" />
    <path
       style="fill:none;stroke:#ff0808;stroke-width:5;stroke-linecap:butt;stroke-linejoin:miter;stroke-miterlimit:4;stroke-opacity:1;stroke-dasharray:none"
       d="m 237.8125,422.67468 c -0.16199,0.1539 -0.27318,0.36041 -0.3125,0.58036 -0.0177,0.0988 -0.021,0.20171 0.006,0.29839 0.0268,0.0967 0.0861,0.18677 0.17273,0.23732 0.0392,0.0229 0.0831,0.0374 0.11995,0.0638 0.0184,0.0132 0.035,0.0295 0.0461,0.0493 0.0111,0.0197 0.0165,0.0432 0.0125,0.0655 -0.003,0.0192 -0.0136,0.0364 -0.0241,0.0528 -0.0105,0.0164 -0.0219,0.0326 -0.0283,0.051 -0.003,0.009 -0.005,0.0189 -0.005,0.0286 1.8e-4,0.01 0.003,0.0195 0.007,0.0279 0.005,0.008 0.0125,0.0154 0.0216,0.0189 0.009,0.004 0.0196,0.003 0.0284,-7.6e-4 0.007,-0.003 0.0128,-0.009 0.0165,-0.0164 0.004,-0.007 0.006,-0.0148 0.006,-0.0227 8.9e-4,-0.0157 -0.003,-0.0313 -0.008,-0.0464 -0.004,-0.0151 -0.009,-0.0303 -0.0116,-0.0458 -0.003,-0.0156 -0.003,-0.0314 -0.003,-0.0472 l 0,-1.25 0,-2.32142 c 0,-2.38582 -0.0493,-4.77698 -0.35714,-7.14286 -0.4068,-3.12635 -1.20479,-6.187 -1.78571,-9.28572 -0.71052,-3.79002 -1.09585,-7.63474 -1.78572,-11.42857 -0.31345,-1.72378 -0.68996,-3.43831 -0.89286,-5.17857 -0.1729,-1.48293 -0.21891,-2.97772 -0.35714,-4.46428 -0.13878,-1.4924 -0.37032,-2.9746 -0.53571,-4.46429 -0.13855,-1.24801 -0.23061,-2.50072 -0.35715,-3.75 -0.17563,-1.73402 -0.41767,-3.4611 -0.71428,-5.17857 -0.11326,-0.6558 -0.23446,-1.31019 -0.35714,-1.96429 -0.1119,-0.59665 -0.22506,-1.1932 -0.35715,-1.78571 -0.10682,-0.47914 -0.22599,-0.95551 -0.35714,-1.42857 -0.11329,-0.40866 -0.23678,-0.82994 -0.17857,-1.25 0.061,-0.43989 0.33168,-0.84598 0.71428,-1.07144 -0.0961,0.0114 -0.19672,-0.0235 -0.26518,-0.0919 -0.0685,-0.0685 -0.10334,-0.16904 -0.092,-0.26518 0.0105,-0.0885 0.0584,-0.17038 0.12452,-0.23012 0.0661,-0.0597 0.14951,-0.0984 0.23603,-0.11976 0.17304,-0.0428 0.35443,-0.0187 0.53231,-0.007 0.4159,0.0267 0.83325,0 1.25,0 l 1.60714,0 c 1.55404,0 3.103,0.14767 4.64286,0.35715 0.89254,0.12142 1.78671,0.2308 2.67857,0.35714 0.83348,0.11807 1.66492,0.25096 2.5,0.35714 0.8937,0.11363 1.79206,0.19675 2.67857,0.35714 0.78162,0.14141 1.55101,0.34236 2.32143,0.53572 1.31689,0.33052 2.6412,0.64001 3.92857,1.07143 0.43067,0.14433 0.85963,0.30351 1.25,0.53571 0.76292,0.45381 1.33608,1.15856 1.96429,1.78572 0.3307,0.33014 0.6876,0.65163 0.89285,1.07142 0.19073,0.39009 0.23458,0.83344 0.35715,1.25 0.1133,0.38508 0.29563,0.74974 0.53571,1.07143 -0.20761,0.76374 -0.1434,1.59843 0.17857,2.32143 0.13086,0.29385 0.30456,0.57552 0.35715,0.89286 0.0292,0.1764 0.0208,0.35662 0.0128,0.53524 -0.008,0.17863 -0.0128,0.35739 -0.0128,0.53619 l 0,1.07143 0,1.96428 c 0,0.41704 0.0565,0.83681 0,1.25 -0.0512,0.374 -0.22233,0.71885 -0.35715,1.07143 -0.2492,0.65168 -0.38082,1.35143 -0.71428,1.96429 -0.20525,0.37722 -0.48138,0.71062 -0.71429,1.07142 -0.23315,0.36119 -0.42534,0.7531 -0.71428,1.07143 -0.38074,0.41946 -0.90292,0.6817 -1.42858,0.89286 -0.47194,0.18959 -0.9568,0.34569 -1.42857,0.53571 -0.17495,0.0705 -0.34991,0.14613 -0.53571,0.17858 -0.29373,0.0513 -0.5948,-0.008 -0.89286,0 -0.38177,0.0108 -0.75955,0.1367 -1.07143,0.35714 -0.46391,-0.1321 -0.96466,-0.1321 -1.42857,0 -0.27251,0.0776 -0.53015,0.19889 -0.792,0.30715 -0.26184,0.10827 -0.5328,0.20475 -0.81514,0.22856 -0.12543,0.0106 -0.25212,0.007 -0.37661,0.0253 -0.12449,0.0186 -0.25022,0.0627 -0.33768,0.15325 -0.0295,0.0305 -0.0539,0.0656 -0.0813,0.098 -0.0274,0.0324 -0.0587,0.0629 -0.0973,0.0806 -0.0547,0.0251 -0.11798,0.0218 -0.17762,0.0135 -0.0596,-0.008 -0.11979,-0.0211 -0.17952,-0.0135 -0.0665,0.008 -0.12717,0.0415 -0.18366,0.0776 -0.0565,0.0361 -0.11126,0.076 -0.17348,0.10097 -0.11153,0.0447 -0.23659,0.0371 -0.35573,0.0216 -0.11915,-0.0155 -0.23957,-0.0382 -0.35856,-0.0216 -0.0935,0.013 -0.18175,0.0499 -0.2685,0.087 -0.0868,0.0372 -0.17422,0.0754 -0.26721,0.0915 -0.0881,0.0153 -0.17829,0.0109 -0.2676,0.007 -0.0893,-0.004 -0.17871,-0.007 -0.26812,-0.007 l -0.53571,0 c -0.0896,0 -0.1792,-0.004 -0.26857,-0.0111 -0.0894,-0.007 -0.18112,-0.014 -0.26715,0.0111 -0.0641,0.0188 -0.12141,0.0551 -0.178,0.0906 -0.0566,0.0355 -0.11453,0.071 -0.17914,0.088 -0.087,0.0228 -0.17886,0.0102 -0.26799,-0.002 -0.0891,-0.0121 -0.18143,-0.0234 -0.26772,0.002 -0.0642,0.0189 -0.12072,0.0568 -0.17693,0.0931 -0.0562,0.0363 -0.1147,0.072 -0.18022,0.0855 -0.0586,0.012 -0.11915,0.006 -0.17861,-7.3e-4 -0.0595,-0.006 -0.12017,-0.0123 -0.17853,7.3e-4 -0.0653,0.0145 -0.12296,0.0518 -0.17888,0.0886 -0.0559,0.0368 -0.11317,0.0744 -0.17826,0.09 -0.058,0.0139 -0.11869,0.01 -0.17825,0.006 -0.0596,-0.004 -0.11922,-0.006 -0.1789,-0.006 -0.23809,0 -0.47619,0 -0.71428,0 -0.0595,0 -0.11905,0 -0.17857,0 -0.0299,0 -0.0598,-0.001 -0.0895,-0.004 -0.0298,-0.002 -0.0604,-0.005 -0.089,0.004 -0.0204,0.006 -0.0388,0.0182 -0.0546,0.0326 -0.0158,0.0144 -0.0291,0.0313 -0.0416,0.0486 -0.0251,0.0346 -0.0479,0.0721 -0.0824,0.0974 -0.0367,0.027 -0.0832,0.0375 -0.12873,0.0386 -0.0455,0.001 -0.0907,-0.006 -0.13559,-0.0138 -0.0897,-0.0153 -0.18038,-0.0248 -0.27139,-0.0248 l -0.89286,0 c -0.11927,0 -0.23849,-0.004 -0.35759,-0.0102 -0.1191,-0.006 -0.23971,-0.013 -0.35669,0.0102 -0.18502,0.0368 -0.34949,0.14856 -0.53572,0.17858 -0.0883,0.0142 -0.17832,0.0101 -0.26763,0.006 -0.0893,-0.004 -0.17869,-0.006 -0.26808,-0.006 l -1.07143,0"
       id="path2997"
       inkscape:path-effect="#path-effect2999"
       inkscape:original-d="m 237.8125,422.67468 c 0.0595,0.17858 -0.372,0.40179 -0.3125,0.58036 0.0595,0.17857 0.0944,0.36735 0.17857,0.53571 0.0376,0.0753 0.14097,0.10327 0.17857,0.17857 0.0266,0.0532 -0.0595,0.17858 0,0.17858 0.0595,0 0,-0.11908 0,-0.17858 0,-0.41666 0,-0.83333 0,-1.25 0,-0.77381 0,-1.54761 0,-2.32142 0,-3.12489 0.10723,-3.95863 -0.35714,-7.14286 -0.43773,-3.00157 -1.25146,-6.29387 -1.78571,-9.28572 -0.73562,-4.11943 -1.11626,-7.27791 -1.78572,-11.42857 -0.27892,-1.72931 -0.66767,-3.44144 -0.89286,-5.17857 -0.19191,-1.48046 -0.20859,-2.97884 -0.35714,-4.46428 -0.14913,-1.49134 -0.37376,-2.9743 -0.53571,-4.46429 -0.13569,-1.2483 -0.22218,-2.50162 -0.35715,-3.75 -0.18465,-1.70806 -0.43111,-3.47953 -0.71428,-5.17857 -0.10941,-0.65644 -0.23262,-1.31054 -0.35714,-1.96429 -0.11359,-0.5963 -0.2381,-1.19047 -0.35715,-1.78571 -0.11904,-0.47619 -0.26084,-0.94726 -0.35714,-1.42857 -0.0826,-0.41273 -0.0765,-0.84167 -0.17857,-1.25 -0.114,-0.45601 0.93076,-0.63848 0.71428,-1.07144 0.35714,0.0595 -0.71772,-0.32436 -0.35714,-0.35713 0.31923,-0.029 0.57667,-0.30445 0.89286,-0.35715 0.411,-0.0685 0.83333,0 1.25,0 0.53571,0 1.07143,0 1.60714,0 3.08184,0 1.32121,-0.10101 4.64286,0.35715 0.89231,0.12307 1.78626,0.23406 2.67857,0.35714 0.8339,0.11502 1.6661,0.24212 2.5,0.35714 0.89231,0.12308 1.79184,0.1988 2.67857,0.35714 0.78178,0.13961 1.54762,0.35715 2.32143,0.53572 1.91263,0.44138 2.24997,0.44195 3.92857,1.07143 0.42446,0.15917 0.85641,0.3108 1.25,0.53571 1.27698,0.7297 1.14091,0.77936 1.96429,1.78572 0.29439,0.3598 0.67245,0.6621 0.89285,1.07142 0.20545,0.38155 0.20159,0.84555 0.35715,1.25 0.14334,0.37269 0.44593,0.68236 0.53571,1.07143 0,0.94864 -0.0685,1.4155 0.17857,2.32143 0.0843,0.30925 0.29981,0.57748 0.35715,0.89286 0.0639,0.35138 0,0.71428 0,1.07143 0,0.35714 0,0.71428 0,1.07143 0,0.65476 0,1.30952 0,1.96428 0,0.41667 0.0634,0.83818 0,1.25 -0.0573,0.37209 -0.2381,0.71429 -0.35715,1.07143 -0.12499,0.37499 -0.5013,1.57382 -0.71428,1.96429 -0.20554,0.37682 -0.47619,0.71428 -0.71429,1.07142 -0.23809,0.35715 -0.44614,0.73626 -0.71428,1.07143 -0.83819,1.04773 -0.42381,0.51607 -1.42858,0.89286 -2.66306,0.99865 1.13827,-0.19767 -1.42857,0.53571 -0.18099,0.0517 -0.34893,0.15523 -0.53571,0.17858 -0.29532,0.0369 -0.60004,-0.0532 -0.89286,0 -0.37039,0.0673 -0.71428,0.23809 -1.07143,0.35714 -0.47619,0 -0.95378,-0.0365 -1.42857,0 -1.14877,0.0884 -0.62587,0.16774 -1.60714,0.53571 -0.2298,0.0862 -0.48642,0.0874 -0.71429,0.17857 -0.0782,0.0313 -0.10328,0.14093 -0.17857,0.17858 -0.0266,0.0133 -0.31869,-0.0128 -0.35714,0 -0.12627,0.0421 -0.22802,0.14629 -0.35714,0.17857 -0.0217,0.005 -0.68742,-0.005 -0.71429,0 -0.18457,0.0369 -0.35004,0.14762 -0.53571,0.17857 -0.17615,0.0294 -0.35715,0 -0.53572,0 -0.17857,0 -0.35714,0 -0.53571,0 -0.17857,0 -0.36061,-0.035 -0.53572,0 -0.13051,0.0261 -0.22662,0.15247 -0.35714,0.17857 -0.1751,0.035 -0.36061,-0.035 -0.53571,0 -0.13052,0.0261 -0.22802,0.14629 -0.35715,0.17857 -0.11549,0.0289 -0.24165,-0.0289 -0.35714,0 -0.12912,0.0323 -0.22802,0.14629 -0.35714,0.17857 -0.1155,0.0289 -0.2381,0 -0.35715,0 -0.23809,0 -0.47619,0 -0.71428,0 -0.0595,0 -0.11905,0 -0.17857,0 -0.0595,0 -0.12533,-0.0266 -0.17857,0 -0.0753,0.0376 -0.0969,0.15816 -0.17858,0.17857 -0.17323,0.0433 -0.35714,0 -0.53571,0 -0.29762,0 -0.59524,0 -0.89286,0 -0.23809,0 -0.47858,-0.0337 -0.71428,0 -0.18634,0.0266 -0.35005,0.14763 -0.53572,0.17858 -0.17614,0.0294 -0.35714,0 -0.53571,0 -0.35714,0 -0.71429,0 -1.07143,0"
       inkscape:connector-curvature="0"
       sodipodi:nodetypes="csccsssssssssscsccccccsssssscssscsscccsssccscssccccccccccccssccccccsssccssccsc"
       inkscape:export-filename="/home/josh/devel/eggyknap_preso/dw-beginners-shower/img/olaf-name.png"
       inkscape:export-xdpi="90"
       inkscape:export-ydpi="90" />
  </g>
</svg>
