<?xml version="1.0" encoding="UTF-8" standalone="no"?>
<!-- Created with Inkscape (http://www.inkscape.org/) -->

<svg
   xmlns:dc="http://purl.org/dc/elements/1.1/"
   xmlns:cc="http://creativecommons.org/ns#"
   xmlns:rdf="http://www.w3.org/1999/02/22-rdf-syntax-ns#"
   xmlns:svg="http://www.w3.org/2000/svg"
   xmlns="http://www.w3.org/2000/svg"
   xmlns:sodipodi="http://sodipodi.sourceforge.net/DTD/sodipodi-0.dtd"
   xmlns:inkscape="http://www.inkscape.org/namespaces/inkscape"
   width="744.09448819"
   height="1052.3622047"
   id="svg2"
   version="1.1"
   inkscape:version="0.48.4 r9939"
   sodipodi:docname="pentaho-logo.svg">
  <defs
     id="defs4">
    <clipPath
       clipPathUnits="userSpaceOnUse"
       id="clipPath3071">
      <rect
         style="fill:none;stroke:#000000;stroke-width:2.5;stroke-linecap:butt;stroke-linejoin:miter;stroke-miterlimit:4;stroke-opacity:1;stroke-dasharray:none;stroke-dashoffset:0"
         id="rect3073"
         width="53.285538"
         height="51.265244"
         x="-1.9280001"
         y="0.8353371"
         ry="0" />
    </clipPath>
  </defs>
  <sodipodi:namedview
     id="base"
     pagecolor="#ffffff"
     bordercolor="#666666"
     borderopacity="1.0"
     inkscape:pageopacity="0.0"
     inkscape:pageshadow="2"
     inkscape:zoom="0.175"
     inkscape:cx="104.41023"
     inkscape:cy="890.8482"
     inkscape:document-units="px"
     inkscape:current-layer="layer1"
     showgrid="false"
     inkscape:window-width="942"
     inkscape:window-height="1154"
     inkscape:window-x="972"
     inkscape:window-y="0"
     inkscape:window-maximized="0" />
  <metadata
     id="metadata7">
    <rdf:RDF>
      <cc:Work
         rdf:about="">
        <dc:format>image/svg+xml</dc:format>
        <dc:type
           rdf:resource="http://purl.org/dc/dcmitype/StillImage" />
        <dc:title></dc:title>
      </cc:Work>
    </rdf:RDF>
  </metadata>
  <g
     inkscape:label="Layer 1"
     inkscape:groupmode="layer"
     id="layer1">
    <path
       style="opacity:0.16972477;fill:#005da6"
       inkscape:connector-curvature="0"
       d="m 372.45574,417.64733 c -26.26504,0 -52.38302,4.76476 -77.66271,14.19135 -60.05958,25.11794 -105.75131,72.29497 -128.45746,132.75161 -24.67675,65.69196 -20.1473,141.39877 12.3825,207.7084 50.42707,93.5747 145.03117,149.5901 252.94427,149.5901 52.48591,0 105.26595,-13.7796 152.63421,-39.8094 80.48626,-47.7211 135.54576,-124.2515 154.85482,-215.42906 20.27967,-95.73642 -1.55886,-197.72296 -59.95664,-279.7975 -71.35379,-95.48647 -181.92867,-150.32536 -303.25369,-150.32536 -136.44282,0 -260.03257,67.92731 -330.592237,181.69337 -6.97068,11.33838 -15.60311,25.39736 -20.26493,39.72109 -0.70592,2.11767 -2.08829,8.73541 0.58824,11.91189 2.22061,2.60297 6.97068,3.2942 9.17655,3.2942 h 0.0134 c 5.73534,0 11.75014,-5.75012 20.35318,-18.61788 41.88288,-59.1037 89.618727,-102.1189 146.045897,-131.64867 50.01531,-25.32386 105.81012,-38.70636 161.39901,-38.70636 131.94279,0 245.85595,72.22146 297.29775,188.45817 30.22094,73.38326 29.97094,155.38425 -0.6618,225.1351 -27.9121,63.64781 -79.0892,111.88371 -144.04586,135.81041 -24.35321,8.1472 -49.47119,12.2208 -74.85383,12.2208 -98.58944,0 -179.23749,-60.1478 -200.64952,-149.66357 -9.76484,-48.42707 2.20591,-100.79536 31.19155,-136.82523 17.16196,-21.36791 47.88295,-47.00054 96.91296,-47.91234 30.77976,0.61768 61.69194,15.07372 78.98626,36.83869 13.01487,16.38253 17.70608,35.55927 13.55899,55.45657 -4.00007,15.27959 -19.55905,33.33861 -33.0151,33.33861 -3.97065,0 -7.69129,-1.39706 -10.80896,-4.07354 -2.8824,-3.04416 -3.29415,-6.30892 -3.8824,-10.83838 -1.05885,-8.16186 -2.66183,-20.51498 -20.3826,-27.08855 -3.36771,-0.97061 -7.22068,-1.54416 -11.02957,-1.54416 -24.97088,0 -42.45639,23.73557 -46.82409,47.14764 -3.01473,22.85321 3.44121,44.29463 18.69143,61.6772 18.77962,21.39734 49.97118,34.67686 81.44213,34.67686 2.58828,0 5.07362,-0.059 8.26484,-0.309 38.3975,-4.3971 71.58909,-24.48557 93.19226,-56.55945 25.23562,-37.47105 32.54454,-87.66286 19.5738,-134.29577 C 530.27978,468.07421 458.35244,417.64715 372.45436,417.64715 z"
       id="path3047" />
  </g>
</svg>
