<?xml version="1.0" encoding="UTF-8" standalone="no"?>
<!-- Created with Inkscape (http://www.inkscape.org/) -->

<svg
   xmlns:dc="http://purl.org/dc/elements/1.1/"
   xmlns:cc="http://creativecommons.org/ns#"
   xmlns:rdf="http://www.w3.org/1999/02/22-rdf-syntax-ns#"
   xmlns:svg="http://www.w3.org/2000/svg"
   xmlns="http://www.w3.org/2000/svg"
   xmlns:sodipodi="http://sodipodi.sourceforge.net/DTD/sodipodi-0.dtd"
   xmlns:inkscape="http://www.inkscape.org/namespaces/inkscape"
   width="586.09003"
   height="280.35999"
   id="svg4176"
   version="1.1"
   inkscape:version="0.48.4 r9939"
   sodipodi:docname="New document 4">
  <defs
     id="defs4178" />
  <sodipodi:namedview
     id="base"
     pagecolor="#ffffff"
     bordercolor="#666666"
     borderopacity="1.0"
     inkscape:pageopacity="0.0"
     inkscape:pageshadow="2"
     inkscape:zoom="0.35"
     inkscape:cx="375"
     inkscape:cy="520"
     inkscape:document-units="px"
     inkscape:current-layer="layer1"
     showgrid="false"
     inkscape:window-width="958"
     inkscape:window-height="1154"
     inkscape:window-x="0"
     inkscape:window-y="0"
     inkscape:window-maximized="0" />
  <metadata
     id="metadata4181">
    <rdf:RDF>
      <cc:Work
         rdf:about="">
        <dc:format>image/svg+xml</dc:format>
        <dc:type
           rdf:resource="http://purl.org/dc/dcmitype/StillImage" />
        <dc:title></dc:title>
      </cc:Work>
    </rdf:RDF>
  </metadata>
  <g
     inkscape:label="Layer 1"
     inkscape:groupmode="layer"
     id="layer1"
     transform="translate(0,-772.00198)">
    <path
       inkscape:connector-curvature="0"
       style="fill:none;stroke:#1a1a1a;stroke-width:1;stroke-linecap:round;stroke-linejoin:miter;stroke-miterlimit:4;stroke-opacity:1;stroke-dasharray:none;stroke-dashoffset:0"
       d="m 9.9740414,915.23526 c 2.7469696,-0.068 5.4939496,-34.84484 8.2409196,29.79797 2.74697,64.64277 5.49394,-62.60236 8.24092,-121.89938 2.74697,-59.29702 5.49394,246.43915 8.24091,221.14795 2.74698,-25.2911 5.49395,-359.79103 8.24092,-231.09547 2.74698,128.69555 5.49395,299.76347 8.24092,127.41657 2.74697,-172.34691 5.49395,-106.34098 8.24092,20.3839 2.74697,126.7249 5.49394,-71.50378 8.24092,-107.91082 2.74697,-36.40704 5.49394,103.31902 8.24091,84.7306 2.74698,-18.58842 5.49395,11.51675 8.24092,3.36517 2.74698,-8.15158 5.49395,-144.53371 8.24092,-55.04054 2.74697,89.49317 5.49395,150.26079 8.240919,1.9328 2.74697,-148.32797 5.49394,6.97299 8.24092,131.31439 2.74697,124.3414 5.49394,-220.84334 8.24092,-247.27872 2.74697,-26.43539 5.49394,333.24972 8.24091,258.86822 2.74698,-74.38138 5.49395,-269.28466 8.24092,-163.74703 2.74697,105.53763 5.49395,100.72805 8.24092,45.98378 2.74697,-54.74426 5.49395,16.58942 8.24092,-3.52038 2.74697,-20.10981 5.49394,22.45117 8.24092,63.95616 2.74697,41.50497 5.49394,-181.49756 8.24091,-161.19653 2.74698,20.30103 5.49395,314.1754 8.24092,193.0651 2.74698,-121.11032 5.49395,-290.64411 8.24092,-110.21057 2.74697,180.43357 5.49395,110.20167 8.24092,-40.33234 2.74697,-150.53399 5.49394,97.1126 8.24092,154.50801 2.74697,57.3954 5.49394,-181.34589 8.24091,-159.67054 2.74698,21.67535 5.49395,100.46272 8.24092,75.94926 2.74698,-24.51346 5.49395,44.89147 8.24092,2.26319 2.74697,-42.62828 5.49395,-99.57586 8.24092,11.30461 2.74697,110.88048 5.49394,-10.95897 8.24092,-119.57592 2.74697,-108.61694 5.49394,215.1366 8.24092,238.9121 2.74697,23.7754 5.49394,-355.79733 8.24091,-270.71398 2.74698,85.08335 5.49395,324.70918 8.24092,186.17094 2.74697,-138.53822 5.49395,-155.20074 8.24092,-51.15029 2.74697,104.05043 5.49395,-6.86496 8.24092,-30.2201 2.74697,-23.35514 5.49394,28.75263 8.24092,4.68433 2.74697,-24.06831 5.49394,95.11325 8.24091,85.05967 2.74698,-10.05357 5.49395,-238.97657 8.24092,-138.13181 2.74697,100.84476 5.49395,255.00234 8.24092,83.50546 2.74697,-171.49693 5.49395,-101.78286 8.24092,57.59477 2.74697,159.37761 5.49394,-118.6742 8.24092,-188.75018 2.74697,-70.07598 5.49394,247.40449 8.24091,220.22269 2.74698,-27.18183 5.49395,-203.972 8.24092,-145.16346 2.74698,58.80854 5.49395,54.32008 8.24092,44.54952 2.74697,-9.77056 5.49395,47.39985 8.24092,-16.6409 2.74697,-64.04075 5.49394,7.16038 8.24092,91.77249 2.74697,84.61215 5.49394,-186.21147 8.24092,-205.91936 2.74697,-19.70789 5.49394,344.49121 8.24091,255.82481 2.74698,-88.66639 5.49395,-347.98933 8.24092,-188.19657 2.74697,159.79277 5.49395,189.29377 8.24092,46.11127 2.74697,-143.18248 5.49394,5.81404 8.24092,67.3763 2.74697,61.5623 5.49394,-86.20733 8.24092,-77.10053 2.74697,9.1068 5.49394,4.81246 8.24091,-0.53049 2.74698,-5.34295 5.49395,141.88982 8.24092,72.85079 2.74697,-69.03904 5.49395,-198.24254 8.24092,-52.00082 2.74697,146.24175 5.49395,84.91336 8.24092,-68.16023 2.74697,-153.07359 5.49394,131.29109 8.24092,205.61698 2.74697,74.326 5.49394,-293.51662 8.24091,-259.83631 2.74698,33.6803 5.49395,288.60231 8.24092,197.53179 2.74698,-91.0705 5.49395,-143.30991 8.24092,-80.70337 2.74697,62.60655 5.49395,0.19557 8.24092,12.82466 2.74697,12.62909 5.49394,6.0386 8.24092,-49.55943 2.74697,-55.59802 5.49394,134.85856 8.24092,150.93766 2.74697,16.0792 5.49394,-299.62288 8.24091,-216.18829 2.74698,83.43458 5.49395,337.76449 8.24092,171.19878 2.74697,-166.56571 5.49395,-201.63021 8.24092,-33.21918 2.74697,168.41099 5.49394,-11.83597 8.24092,-102.97641 2.74697,-91.14044 5.49394,143.64889 8.24092,145.59738 2.74697,1.94849 5.49394,-108.57238 8.24091,-83.70472 2.74698,24.86767 5.49395,-32.7919 8.24092,-4.59083 2.74697,28.20107 5.49395,127.66207 8.24092,20.60543"
       title="sin(x/10) * sin(x)"
       id="path3194" />
  </g>
</svg>
