<?xml version="1.0" encoding="UTF-8" standalone="no"?>
<!-- Created with Inkscape (http://www.inkscape.org/) -->

<svg
   xmlns:dc="http://purl.org/dc/elements/1.1/"
   xmlns:cc="http://creativecommons.org/ns#"
   xmlns:rdf="http://www.w3.org/1999/02/22-rdf-syntax-ns#"
   xmlns:svg="http://www.w3.org/2000/svg"
   xmlns="http://www.w3.org/2000/svg"
   xmlns:sodipodi="http://sodipodi.sourceforge.net/DTD/sodipodi-0.dtd"
   xmlns:inkscape="http://www.inkscape.org/namespaces/inkscape"
   inkscape:version="0.48.4 r9939"
   version="1.1"
   id="svg4229"
   height="70.360001"
   width="430.09"
   sodipodi:docname="New document 7">
  <sodipodi:namedview
     id="base"
     pagecolor="#ffffff"
     bordercolor="#666666"
     borderopacity="1.0"
     inkscape:pageopacity="0.0"
     inkscape:pageshadow="2"
     inkscape:zoom="0.7"
     inkscape:cx="3.8110588"
     inkscape:cy="437.29528"
     inkscape:document-units="px"
     inkscape:current-layer="layer1"
     showgrid="false"
     inkscape:window-width="958"
     inkscape:window-height="1154"
     inkscape:window-x="0"
     inkscape:window-y="0"
     inkscape:window-maximized="0" />
  <defs
     id="defs4231" />
  <metadata
     id="metadata4234">
    <rdf:RDF>
      <cc:Work
         rdf:about="">
        <dc:format>image/svg+xml</dc:format>
        <dc:type
           rdf:resource="http://purl.org/dc/dcmitype/StillImage" />
        <dc:title></dc:title>
      </cc:Work>
    </rdf:RDF>
  </metadata>
  <g
     id="layer1"
     inkscape:groupmode="layer"
     inkscape:label="Layer 1"
     transform="translate(0,-982.00221)">
    <path
       id="path4277"
       title="sin(x)"
       d="m 0.3294327,1016.8965 c 0.396234,-8.146 0.792468,-16.248 1.188701,-22.2091 0.396234,-5.96111 0.792468,-9.70868 1.188701,-10.28419 0.396234,-0.57552 0.792467,2.04356 1.188701,7.16265 0.396233,5.11909 0.792467,12.69854 1.1887,20.76364 0.396234,8.065 0.792468,16.5352 1.188701,23.2158 0.396234,6.6806 0.792467,11.4934 1.188701,13.2025 0.396233,1.7091 0.792467,0.2805 1.188701,-3.8996 0.396233,-4.1801 0.792467,-11.0831 1.1887,-18.9079 0.3962343,-7.8249 0.7924673,-16.4958 1.1887013,-23.7639 0.396234,-7.26817 0.792467,-13.05128 1.188701,-15.86016 0.396233,-2.80889 0.792467,-2.59902 1.1887,0.55954 0.396234,3.15857 0.792467,9.24872 1.188701,16.67882 0.396234,7.43 0.792467,16.1304 1.188701,23.8425 0.396233,7.7121 0.792467,14.3512 1.1887,18.2044 0.396234,3.8532 0.792468,4.8662 1.188701,2.7915 0.396234,-2.0746 0.792467,-7.2316 1.188701,-14.1201 0.396233,-6.8884 0.792467,-15.4465 1.188701,-23.4501 0.396233,-8.0037 0.792467,-15.36764 1.1887,-20.18902 0.396234,-4.82139 0.792468,-7.03724 1.188701,-6.08756 0.396232,0.94968 0.792468,5.07167 1.1887,11.2825 0.396233,6.21078 0.792469,14.45738 1.188701,22.59458 0.396233,8.1371 0.792469,16.0804 1.188701,21.7747 0.396232,5.6944 0.792468,9.0693 1.188701,9.2633 0.396232,0.194 0.792468,-2.8115 1.188701,-8.222 0.396232,-5.4105 0.792468,-13.1827 1.1887,-21.2926 0.396233,-8.1099 0.792469,-16.4756 1.188701,-22.93035 0.396233,-6.45479 0.792468,-10.92213 1.188701,-12.25601 0.396232,-1.33388 0.792468,0.49585 1.188701,4.99909 0.396232,4.50324 0.792468,11.64757 1.1887,19.56997 0.396233,7.9224 0.792469,16.5453 1.188701,23.633 0.396233,7.0877 0.792469,12.5592 1.188701,15.0066 0.396232,2.4474 0.792465,1.8297 1.188701,-1.6774 0.396232,-3.507 0.792465,-9.8823 1.188701,-17.4607 0.396232,-7.5785 0.792465,-16.2882 1.1887,-23.8688 0.396233,-7.58067 0.792465,-13.94823 1.188701,-17.46078 0.396233,-3.51256 0.792465,-4.11897 1.188701,-1.67741 0.396232,2.44156 0.792465,7.9219 1.188701,15.00659 0.396232,7.0847 0.792465,15.7092 1.188701,23.633 0.396232,7.9239 0.792464,15.0617 1.1887,19.57 0.396233,4.5083 0.792465,6.3269 1.188701,4.9991 0.396233,-1.3279 0.792465,-5.8049 1.188701,-12.256 0.396232,-6.4511 0.792465,-14.8199 1.188701,-22.9304 0.396232,-8.1104 0.792465,-15.87753 1.1887,-21.29257 0.396233,-5.41505 0.792465,-8.40992 1.188701,-8.22201 0.396233,0.18791 0.792465,3.57332 1.188701,9.26328 0.396232,5.68996 0.792465,13.6379 1.188701,21.7748 0.396232,8.1368 0.792465,16.3797 1.188697,22.5945 0.396236,6.2148 0.792468,10.3268 1.188701,11.2825 0.396236,0.9558 0.792468,-1.2711 1.188701,-6.0875 0.396236,-4.8165 0.792468,-12.1865 1.188701,-20.189 0.396235,-8.0026 0.792468,-16.5585 1.1887,-23.4502 0.396236,-6.89174 0.792469,-12.03959 1.188701,-14.12011 0.396236,-2.08052 0.792468,-1.05622 1.188701,2.79158 0.396236,3.84781 0.792468,10.49426 1.188701,18.20433 0.396236,7.7101 0.792468,16.41 1.1887,23.8426 0.396235,7.4325 0.792465,13.5146 1.188705,16.6788 0.39623,3.1642 0.79246,3.3626 1.1887,0.5595 0.39623,-2.8031 0.79247,-8.5947 1.1887,-15.8601 0.39623,-7.2654 0.79247,-15.9374 1.1887,-23.7639 0.39623,-7.8266 0.79247,-14.72261 1.1887,-18.90797 0.39624,-4.18536 0.79247,-5.60272 1.1887,-3.89962 0.39623,1.7031 0.79247,6.52546 1.1887,13.20257 0.39623,6.67712 0.79247,15.14982 1.1887,23.21582 0.39623,8.0659 0.79247,15.6397 1.1887,20.7636 0.39623,5.1238 0.79247,7.732 1.1887,7.1626 0.39624,-0.5694 0.79247,-4.3272 1.1887,-10.2842 0.39624,-5.9569 0.79247,-14.0631 1.1887,-22.209 0.39624,-8.146 0.79247,-16.248 1.18871,-22.2091 0.39623,-5.96111 0.79246,-9.70868 1.1887,-10.28419 0.39623,-0.57552 0.79246,2.04356 1.1887,7.16265 0.39623,5.11909 0.79247,12.69854 1.1887,20.76364 0.39623,8.065 0.79247,16.5352 1.1887,23.2158 0.39623,6.6806 0.79247,11.4934 1.1887,13.2025 0.39623,1.7091 0.79247,0.2805 1.1887,-3.8996 0.39623,-4.1801 0.79247,-11.0831 1.1887,-18.9079 0.39623,-7.8249 0.79247,-16.4958 1.1887,-23.7639 0.39623,-7.26817 0.79247,-13.05128 1.1887,-15.86016 0.39624,-2.80889 0.79247,-2.59902 1.1887,0.55954 0.39624,3.15857 0.79247,9.24872 1.1887,16.67882 0.39624,7.43 0.79247,16.1304 1.18871,23.8425 0.39623,7.7121 0.79246,14.3512 1.1887,18.2044 0.39623,3.8532 0.79246,4.8662 1.1887,2.7915 0.39623,-2.0746 0.79246,-7.2316 1.1887,-14.1201 0.39623,-6.8884 0.79246,-15.4465 1.188704,-23.4501 0.39623,-8.0037 0.79246,-15.36764 1.1887,-20.18902 0.39623,-4.82139 0.79246,-7.03724 1.1887,-6.08756 0.39623,0.94968 0.79246,5.07167 1.1887,11.2825 0.39623,6.21078 0.79247,14.45738 1.1887,22.59458 0.39623,8.1371 0.79247,16.0804 1.1887,21.7747 0.39623,5.6944 0.79247,9.0693 1.1887,9.2633 0.39624,0.194 0.79247,-2.8115 1.1887,-8.222 0.39624,-5.4105 0.79247,-13.1827 1.1887,-21.2926 0.39624,-8.1099 0.79247,-16.4756 1.1887,-22.93035 0.39624,-6.45479 0.79247,-10.92213 1.1887,-12.25601 0.39624,-1.33388 0.79247,0.49585 1.1887,4.99909 0.39624,4.50324 0.79247,11.64757 1.1887,19.56997 0.39624,7.9224 0.79247,16.5453 1.1887,23.633 0.39624,7.0877 0.79247,12.5592 1.18871,15.0066 0.39623,2.4474 0.79246,1.8297 1.1887,-1.6774 0.39623,-3.507 0.79246,-9.8823 1.1887,-17.4607 0.39623,-7.5785 0.79247,-16.2882 1.1887,-23.8688 0.39623,-7.58067 0.79247,-13.94823 1.1887,-17.46078 0.39623,-3.51256 0.79247,-4.11897 1.1887,-1.67741 0.39624,2.44156 0.79247,7.9219 1.1887,15.00659 0.39624,7.0847 0.79247,15.7092 1.1887,23.633 0.39624,7.9239 0.79247,15.0617 1.1887,19.57 0.39623,4.5083 0.79247,6.3269 1.1887,4.9991 0.39624,-1.3279 0.79247,-5.8049 1.1887,-12.256 0.39624,-6.4511 0.79247,-14.8199 1.1887,-22.9304 0.39624,-8.1104 0.79247,-15.87753 1.18871,-21.29257 0.39623,-5.41505 0.79246,-8.40992 1.1887,-8.22201 0.39623,0.18791 0.79246,3.57332 1.1887,9.26328 0.39623,5.68996 0.79247,13.6379 1.1887,21.7748 0.39623,8.1368 0.79247,16.3797 1.1887,22.5945 0.39623,6.2148 0.79247,10.3268 1.1887,11.2825 0.39623,0.9558 0.79247,-1.2711 1.1887,-6.0875 0.39623,-4.8165 0.79247,-12.1865 1.1887,-20.189 0.39623,-8.0026 0.79247,-16.5585 1.1887,-23.4502 0.39623,-6.89174 0.79247,-12.03959 1.1887,-14.12011 0.39623,-2.08052 0.79247,-1.05622 1.1887,2.79158 0.39624,3.84781 0.79247,10.49426 1.1887,18.20433 0.39624,7.7101 0.79247,16.41 1.1887,23.8426 0.39624,7.4325 0.79247,13.5146 1.18871,16.6788 0.39623,3.1642 0.79246,3.3626 1.1887,0.5595 0.39623,-2.8031 0.79246,-8.5947 1.1887,-15.8601 0.39623,-7.2654 0.79246,-15.9374 1.1887,-23.7639 0.39623,-7.8266 0.79246,-14.72261 1.1887,-18.90797 0.39623,-4.18536 0.79246,-5.60272 1.1887,-3.89962 0.39623,1.7031 0.79246,6.52546 1.1887,13.20257 0.39623,6.67712 0.79246,15.14982 1.1887,23.21582 0.39623,8.0659 0.79247,15.6397 1.1887,20.7636 0.39623,5.1238 0.79247,7.732 1.1887,7.1626 0.39623,-0.5694 0.79247,-4.3272 1.1887,-10.2842 0.39624,-5.9569 0.79247,-14.0631 1.1887,-22.209 54.59649,0 54.59649,0 54.59649,0"
       style="fill:none;stroke:#1a1a1a;stroke-width:0.34202492;stroke-linecap:round;stroke-linejoin:miter;stroke-miterlimit:4;stroke-opacity:1;stroke-dasharray:none;stroke-dashoffset:0"
       inkscape:connector-curvature="0" />
    <path
       inkscape:connector-curvature="0"
       style="fill:none;stroke:#1a1a1a;stroke-width:0.34202492;stroke-linecap:round;stroke-linejoin:miter;stroke-miterlimit:4;stroke-opacity:1;stroke-dasharray:none;stroke-dashoffset:0"
       d="m 214.48178,1018.4117 c 0.39623,-8.146 0.79246,-16.248 1.1887,-22.20907 0.39623,-5.96111 0.79247,-9.70868 1.1887,-10.28419 0.39623,-0.57552 0.79247,2.04356 1.1887,7.16265 0.39623,5.11909 0.79247,12.69851 1.1887,20.76361 0.39623,8.0651 0.79247,16.5352 1.1887,23.2158 0.39623,6.6806 0.79247,11.4935 1.1887,13.2026 0.39623,1.709 0.79247,0.2805 1.1887,-3.8997 0.39624,-4.1801 0.79247,-11.0831 1.1887,-18.9079 0.39624,-7.8249 0.79247,-16.4958 1.1887,-23.7639 0.39624,-7.26814 0.79247,-13.05125 1.1887,-15.86013 0.39624,-2.80889 0.79247,-2.59902 1.1887,0.55954 0.39624,3.15857 0.79247,9.24872 1.18871,16.67879 0.39623,7.43 0.79246,16.1305 1.1887,23.8425 0.39623,7.7121 0.79246,14.3512 1.1887,18.2044 0.39623,3.8532 0.79246,4.8662 1.1887,2.7916 0.39623,-2.0746 0.79246,-7.2317 1.1887,-14.1201 0.39623,-6.8885 0.79247,-15.4465 1.1887,-23.4502 0.39623,-8.0037 0.79247,-15.36761 1.1887,-20.18899 0.39623,-4.82139 0.79247,-7.03724 1.1887,-6.08756 0.39623,0.94968 0.79247,5.07167 1.1887,11.2825 0.39623,6.21085 0.79247,14.45745 1.1887,22.59455 0.39623,8.1372 0.79247,16.0804 1.1887,21.7748 0.39623,5.6943 0.79247,9.0692 1.1887,9.2632 0.39624,0.1941 0.79247,-2.8115 1.1887,-8.222 0.39624,-5.4104 0.79247,-13.1827 1.1887,-21.2925 0.39624,-8.1099 0.79247,-16.4756 1.18871,-22.93042 0.39623,-6.45479 0.79246,-10.92213 1.1887,-12.25601 0.39623,-1.33388 0.79246,0.49585 1.1887,4.99909 0.39623,4.50324 0.79247,11.64754 1.1887,19.56994 0.39623,7.9224 0.79247,16.5453 1.1887,23.633 0.39623,7.0878 0.79247,12.5593 1.1887,15.0067 0.39623,2.4473 0.79246,1.8296 1.1887,-1.6775 0.39623,-3.507 0.79247,-9.8823 1.1887,-17.4607 0.39623,-7.5784 0.79247,-16.2881 1.1887,-23.8688 0.39623,-7.58064 0.79247,-13.9482 1.1887,-17.46075 0.39624,-3.51256 0.79247,-4.11897 1.1887,-1.67741 0.39624,2.44156 0.79247,7.9219 1.1887,15.00656 0.39624,7.0848 0.79247,15.7092 1.18871,23.6331 0.39623,7.9238 0.79246,15.0616 1.1887,19.5699 0.39623,4.5084 0.79246,6.327 1.1887,4.9991 0.39623,-1.3278 0.79246,-5.8049 1.1887,-12.256 0.39623,-6.451 0.79246,-14.8199 1.1887,-22.9304 0.39623,-8.1104 0.79246,-15.8775 1.1887,-21.29254 0.39623,-5.41505 0.79246,-8.40992 1.1887,-8.22201 0.39623,0.18791 0.79246,3.57332 1.1887,9.26328 0.39623,5.68997 0.79247,13.63787 1.1887,21.77477 0.39623,8.1369 0.79247,16.3798 1.1887,22.5946 0.39623,6.2147 0.79247,10.3267 1.1887,11.2824 0.39624,0.9558 0.79247,-1.2711 1.1887,-6.0875 0.39624,-4.8165 0.79247,-12.1865 1.1887,-20.189 0.39624,-8.0025 0.79247,-16.5584 1.1887,-23.4502 0.39624,-6.89171 0.79247,-12.03956 1.1887,-14.12008 0.39624,-2.08052 0.79247,-1.05622 1.1887,2.79158 0.39624,3.84781 0.79247,10.4943 1.1887,18.2044 0.39624,7.7101 0.79247,16.41 1.1887,23.8425 0.39624,7.4326 0.79247,13.5146 1.18871,16.6788 0.39623,3.1642 0.79246,3.3627 1.1887,0.5595 0.39623,-2.8031 0.79247,-8.5947 1.1887,-15.8601 0.39623,-7.2654 0.79247,-15.9373 1.1887,-23.7639 0.39623,-7.8265 0.79247,-14.72258 1.1887,-18.90794 0.39624,-4.18536 0.79247,-5.60272 1.1887,-3.89962 0.39623,1.7031 0.79247,6.52546 1.1887,13.20257 0.39623,6.67709 0.79247,15.14989 1.1887,23.21579 0.39623,8.0659 0.79247,15.6398 1.1887,20.7636 0.39623,5.1239 0.79247,7.7321 1.1887,7.1627 0.39624,-0.5695 0.79247,-4.3273 1.1887,-10.2842 0.39624,-5.957 0.79247,-14.0631 1.1887,-22.2091 0.39624,-8.146 0.79247,-16.248 1.18871,-22.20907 0.39623,-5.96111 0.79246,-9.70868 1.1887,-10.28419 0.39623,-0.57552 0.79246,2.04356 1.1887,7.16265 0.39623,5.11909 0.79247,12.69851 1.1887,20.76361 0.39623,8.0651 0.79247,16.5352 1.1887,23.2158 0.39623,6.6806 0.79247,11.4935 1.1887,13.2026 0.39623,1.709 0.79247,0.2805 1.1887,-3.8997 0.39623,-4.1801 0.79247,-11.0831 1.1887,-18.9079 0.39623,-7.8249 0.79247,-16.4958 1.1887,-23.7639 0.39623,-7.26814 0.79247,-13.05125 1.1887,-15.86013 0.39624,-2.80889 0.79247,-2.59902 1.1887,0.55954 0.39624,3.15857 0.79247,9.24872 1.1887,16.67879 0.39624,7.43 0.79247,16.1305 1.18871,23.8425 0.39623,7.7121 0.79246,14.3512 1.1887,18.2044 0.39623,3.8532 0.79246,4.8662 1.1887,2.7916 0.39623,-2.0746 0.79246,-7.2317 1.1887,-14.1201 0.39623,-6.8885 0.79246,-15.4465 1.1887,-23.4502 0.39623,-8.0037 0.79246,-15.36761 1.1887,-20.18899 0.39623,-4.82139 0.79246,-7.03724 1.1887,-6.08756 0.39623,0.94968 0.79246,5.07167 1.1887,11.2825 0.39623,6.21085 0.79247,14.45745 1.1887,22.59455 0.39623,8.1372 0.79247,16.0804 1.1887,21.7748 0.39623,5.6943 0.79247,9.0692 1.1887,9.2632 0.39624,0.1941 0.79247,-2.8115 1.1887,-8.222 0.39624,-5.4104 0.79247,-13.1827 1.1887,-21.2925 0.39624,-8.1099 0.79247,-16.4756 1.1887,-22.93042 0.39624,-6.45479 0.79247,-10.92213 1.1887,-12.25601 0.39624,-1.33388 0.79247,0.49585 1.1887,4.99909 0.39624,4.50324 0.79247,11.64754 1.1887,19.56994 0.39624,7.9224 0.79247,16.5453 1.1887,23.633 0.39624,7.0878 0.79247,12.5593 1.18871,15.0067 0.39623,2.4473 0.79246,1.8296 1.1887,-1.6775 0.39623,-3.507 0.79246,-9.8823 1.1887,-17.4607 0.39623,-7.5784 0.79247,-16.2881 1.1887,-23.8688 0.39623,-7.58064 0.79247,-13.9482 1.1887,-17.46075 0.39623,-3.51256 0.79247,-4.11897 1.1887,-1.67741 0.39624,2.44156 0.79247,7.9219 1.1887,15.00656 0.39624,7.0848 0.79247,15.7092 1.1887,23.6331 0.39624,7.9238 0.79247,15.0616 1.1887,19.5699 0.39623,4.5084 0.79247,6.327 1.1887,4.9991 0.39624,-1.3278 0.79247,-5.8049 1.1887,-12.256 0.39624,-6.451 0.79247,-14.8199 1.1887,-22.9304 0.39624,-8.1104 0.79247,-15.8775 1.18871,-21.29254 0.39623,-5.41505 0.79246,-8.40992 1.1887,-8.22201 0.39623,0.18791 0.79246,3.57332 1.1887,9.26328 0.39623,5.68997 0.79247,13.63787 1.1887,21.77477 0.39623,8.1369 0.79247,16.3798 1.1887,22.5946 0.39623,6.2147 0.79247,10.3267 1.1887,11.2824 0.39623,0.9558 0.79247,-1.2711 1.1887,-6.0875 0.39623,-4.8165 0.79247,-12.1865 1.1887,-20.189 0.39623,-8.0025 0.79247,-16.5584 1.1887,-23.4502 0.39623,-6.89171 0.79247,-12.03956 1.1887,-14.12008 0.39623,-2.08052 0.79247,-1.05622 1.1887,2.79158 0.39624,3.84781 0.79247,10.4943 1.1887,18.2044 0.39624,7.7101 0.79247,16.41 1.1887,23.8425 0.39624,7.4326 0.79247,13.5146 1.18871,16.6788 0.39623,3.1642 0.79246,3.3627 1.1887,0.5595 0.39623,-2.8031 0.79246,-8.5947 1.1887,-15.8601 0.39623,-7.2654 0.79246,-15.9373 1.1887,-23.7639 0.39623,-7.8265 0.79246,-14.72258 1.1887,-18.90794 0.39623,-4.18536 0.79246,-5.60272 1.1887,-3.89962 0.39623,1.7031 0.79246,6.52546 1.1887,13.20257 0.39623,6.67709 0.79246,15.14989 1.1887,23.21579 0.39623,8.0659 0.79247,15.6398 1.1887,20.7636 0.39623,5.1239 0.79247,7.7321 1.1887,7.1627 0.39623,-0.5695 0.79247,-4.3273 1.1887,-10.2842 0.39624,-5.957 0.79247,-14.0631 1.1887,-22.2091 54.59649,0 54.59649,0 54.59649,0"
       title="sin(x)"
       id="path4283" />
  </g>
</svg>
