<?xml version="1.0" encoding="UTF-8" standalone="no"?>
<!-- Created with Inkscape (http://www.inkscape.org/) -->

<svg
   xmlns:dc="http://purl.org/dc/elements/1.1/"
   xmlns:cc="http://creativecommons.org/ns#"
   xmlns:rdf="http://www.w3.org/1999/02/22-rdf-syntax-ns#"
   xmlns:svg="http://www.w3.org/2000/svg"
   xmlns="http://www.w3.org/2000/svg"
   xmlns:sodipodi="http://sodipodi.sourceforge.net/DTD/sodipodi-0.dtd"
   xmlns:inkscape="http://www.inkscape.org/namespaces/inkscape"
   sodipodi:docname="New document 1"
   width="607.09003"
   height="149.36"
   id="svg2"
   version="1.1"
   inkscape:version="0.48.4 r9939">
  <sodipodi:namedview
     id="base"
     pagecolor="#ffffff"
     bordercolor="#666666"
     borderopacity="1.0"
     inkscape:pageopacity="0.0"
     inkscape:pageshadow="2"
     inkscape:zoom="0.7"
     inkscape:cx="160.73565"
     inkscape:cy="37.45815"
     inkscape:document-units="px"
     inkscape:current-layer="layer1"
     showgrid="false"
     inkscape:window-width="958"
     inkscape:window-height="1154"
     inkscape:window-x="0"
     inkscape:window-y="0"
     inkscape:window-maximized="0" />
  <defs
     id="defs4" />
  <metadata
     id="metadata7">
    <rdf:RDF>
      <cc:Work
         rdf:about="">
        <dc:format>image/svg+xml</dc:format>
        <dc:type
           rdf:resource="http://purl.org/dc/dcmitype/StillImage" />
        <dc:title></dc:title>
      </cc:Work>
    </rdf:RDF>
  </metadata>
  <g
     id="layer1"
     inkscape:groupmode="layer"
     inkscape:label="Layer 1"
     transform="translate(0,-903.00167)">
    <path
       id="path4158"
       title="sin(34 * x + 20 * sin(x))/2"
       d="m 7.8571399,943.92339 c 1.3279,86.48841 2.6558001,70.24601 3.9837001,-8.16541 1.3279,-78.41141 2.6558,121.52662 3.9837,108.47562 1.3279,-13.0509 2.6558,-181.88456 3.9837,-95.32178 1.3279,86.56278 2.6558,71.23928 3.9837,-8.25039 1.3279,-79.48963 2.6558,90.48347 3.98371,103.54187 1.3279,13.0584 2.6558,-176.59975 3.9837,-122.15129 1.3279,54.44846 2.6558,153.16119 3.9837,67.93597 1.3279,-85.22521 2.6558,-63.84656 3.9837,13.81602 1.3279,77.6627 2.6558,-32.41578 3.9837,-82.20154 1.3279,-49.78575 2.6558,101.50474 3.9837,121.19284 1.3279,19.688 2.6558,-137.81956 3.9837,-135.05737 1.3279,2.7622 2.6558,150.63397 3.9837,135.73637 1.3279,-14.8976 2.6558,-151.03583 3.9837,-133.70738 1.3279,17.32845 2.6558,145.27808 3.9837,134.20598 1.3279,-11.0722 2.6558,-133.03642 3.9837,-136.20768 1.3279,-3.17127 2.6558,108.35048 3.9837,132.05188 1.3279,23.7014 2.6558,-63.34346 3.9837,-108.45065 1.3279,-45.10719 2.6558,-3.50944 3.9837,52.7985 1.3279,56.30795 2.65581,75.50855 3.98371,31.53095 1.3279,-43.97748 2.6558,-112.95844 3.9837,-107.62031 1.3279,5.33814 2.6558,75.65099 3.9837,112.47291 1.3279,36.8218 2.6558,24.0354 3.9837,-17.9392 1.3279,-41.97463 2.6558,-93.4425 3.9837,-94.88319 1.3279,-1.44068 2.6558,43.95638 3.9837,83.46339 1.3279,39.507 2.6558,62.7992 3.9837,49.1364 1.3279,-13.6629 2.6558,-58.93503 3.9837,-91.87765 1.3279,-32.94262 2.6558,-48.47267 3.9837,-35.88555 1.3279,12.58713 2.6558,50.04731 3.9837,81.26756 1.3279,31.22024 2.6558,52.87304 3.9837,50.91974 1.3279,-1.9532 2.6558,-26.4209 3.9837,-55.19162 1.3279,-28.7707 2.6558,-59.42642 3.9837,-73.16972 1.3279,-13.74329 2.6558,-10.06464 3.98371,7.4939 1.3279,17.55855 2.6558,47.70958 3.9837,73.01221 1.3279,25.30263 2.6558,44.46883 3.9837,47.52723 1.3279,3.0584 2.6558,-10.0603 3.9837,-31.9927 1.3279,-21.93227 2.6558,-51.64169 3.9837,-73.33852 1.3279,-21.69684 2.6558,-34.27874 3.9837,-30.77158 1.3279,3.50715 2.6558,23.15441 3.9837,48.60212 1.3279,25.44771 2.6558,55.43648 3.9837,72.62288 1.3279,17.1863 2.6558,20.1785 3.9837,5.9686 1.3279,-14.2099 2.6558,-45.2141 3.9837,-73.88712 1.3279,-28.67303 2.6558,-52.54655 3.9837,-53.87404 1.3279,-1.3275 2.6558,21.10842 3.9837,52.52333 1.3279,31.41492 2.6558,68.46303 3.9837,80.33893 1.3279,11.8759 2.6558,-4.7803 3.9837,-38.0925 1.3279,-33.31214 2.65581,-78.14453 3.98371,-90.90868 1.3279,-12.76415 2.6558,11.94386 3.9837,51.70775 1.3279,39.76393 2.6558,84.10213 3.9837,81.43493 1.3279,-2.6671 2.6558,-55.35057 3.9837,-96.81304 1.3279,-41.46247 2.6558,-51.92311 3.9837,-14.09319 1.3279,37.82993 2.6558,107.25313 3.9837,110.87473 1.3279,3.6216 2.6558,-67.07439 3.9837,-109.95143 1.3279,-42.87705 2.6558,-20.16512 3.9837,36.38992 1.3279,56.55501 2.6558,94.47381 3.9837,47.82021 1.3279,-46.65369 2.6558,-131.1183 3.9837,-105.0063 1.3279,26.112 2.6558,136.6442 3.9837,130.6162 1.3279,-6.0281 2.6558,-128.46215 3.9837,-136.44757 1.3279,-7.98541 2.6558,121.40557 3.9837,135.43257 1.3279,14.027 2.6558,-123.81488 3.9837,-135.10754 1.32791,-11.29265 2.65581,137.59834 3.98371,136.41194 1.3279,-1.1864 2.6558,-157.80581 3.9837,-134.03834 1.3279,23.76747 2.6558,170.94734 3.9837,117.62674 1.3279,-53.32064 2.6558,-155.34882 3.9837,-75.86921 1.3279,79.47961 2.6558,89.97231 3.9837,5.87228 1.3279,-84.1 2.6558,24.41836 3.9837,74.60213 1.3279,50.1838 2.6558,-142.43533 3.9837,-123.92924 1.3279,18.50608 2.6558,181.16834 3.9837,98.83614 1.3279,-82.33225 2.6558,-84.19184 3.9837,-0.1615 1.3279,84.0303 2.6558,-92.99095 3.9837,-99.96023 1.3279,-6.96928 2.6558,187.01163 3.9837,105.06053 1.3279,-81.95107 2.6558,-83.23499 3.9837,-0.1412 1.3279,83.0938 2.6558,-118.88088 3.9837,-104.31763 1.3279,14.56325 2.65581,180.18063 3.98371,83.76379 1.3279,-96.41688 2.6558,-16.05092 3.9837,40.54834 1.3279,56.5993 2.6558,-169.21095 3.9837,-112.96751 1.3279,56.24344 2.6558,137.06551 3.9837,40.54834 1.3279,-96.51716 2.6558,68.77917 3.9837,83.76377 1.3279,14.9846 2.6558,-187.18869 3.9837,-104.31759 1.3279,82.87109 2.6558,82.03069 3.9837,-0.14123 1.3279,-82.17194 2.6558,111.62882 3.9837,105.06052 1.3279,-6.5682 2.6558,-183.81225 3.9837,-99.96018 1.3279,83.85208 2.6558,82.34668 3.9837,-0.16149 1.3279,-82.50818 2.6558,79.97397 3.9837,98.83607 1.3279,18.8621 2.6558,-173.82625 3.9837,-123.92922 1.3279,49.89702 2.6558,158.61822 3.9837,74.60214 1.3279,-84.01608 2.6558,-73.718 3.9837,5.87229 1.32791,79.59029 2.65581,-22.32161 3.98371,-75.86918 1.3279,-53.54757 2.6558,93.59317 3.9837,117.62667 1.3279,24.0336 2.6558,-132.59224 3.9837,-134.03833 1.3279,-1.44609 2.6558,147.46643 3.9837,136.41193 1.3279,-11.0545 2.6558,-148.91617 3.9837,-135.1075 1.3279,13.80867 2.6558,143.2143 3.9837,135.4326 1.3279,-7.7818 2.6558,-130.23193 3.9837,-136.44759 1.3279,-6.21566 2.6558,104.34709 3.9837,130.61619 1.3279,26.269 2.6558,-58.25343 3.9837,-105.00628 1.3279,-46.75286 2.6558,-8.7483 3.9837,47.82018 1.3279,56.5685 2.6558,79.1926 3.9837,36.3899 1.3279,-42.80267 2.6558,-113.45991 3.9837,-109.9514 1.3279,3.50851 2.6558,72.97981 3.9837,110.8747 1.3279,37.8949 2.65581,27.3343 3.98371,-14.0932 1.3279,-41.4274 2.6558,-94.06526 3.9837,-96.81306 1.3279,-2.7478 2.6558,41.6552 3.9837,81.43498 1.3279,39.77978 2.6558,64.41248 3.9837,51.70778 1.3279,-12.7047 2.6558,-57.57292 3.9837,-90.90875 1.3279,-33.33583 2.6558,-49.92135 3.9837,-38.09247 1.3279,11.82887 2.6558,48.91172 3.9837,80.33894 1.3279,31.42718 2.6558,53.80968 3.9837,52.52338 1.3279,-1.2864 2.6558,-25.2079 3.9837,-53.87408 1.3279,-28.66622 2.6558,-59.64669 3.9837,-73.88714 1.3279,-14.24045 2.6558,-11.19304 3.9837,5.96864 1.3279,17.16168 2.6558,47.16588 3.9837,72.62285 1.3279,25.45693 2.6558,45.06553 3.9837,48.60213 1.3279,3.5366 2.6558,-9.0905 3.9837,-30.7716 1.32791,-21.68112 2.65581,-51.39099 3.98371,-73.33856 1.3279,-21.94757 2.6558,-35.02158 3.9837,-31.99266 1.3279,3.02892 2.6558,22.23441 3.9837,47.52724 1.3279,25.29283 2.6558,55.42938 3.9837,73.01218 1.3279,17.5828 2.6558,21.2064 3.9837,7.4939 1.3279,-13.7125 2.6558,-44.39296 3.9837,-73.16969 1.3279,-28.77672 2.6558,-53.19738 3.9837,-55.19166 1.3279,-1.99428 2.6558,19.71282 3.9837,50.91978 1.3279,31.20697 2.6558,68.63397 3.9837,81.26757 1.3279,12.6336 2.6558,-2.9679 3.9837,-35.8856 1.3279,-32.91766 2.6558,-78.15602 3.9837,-91.87757 1.3279,-13.72155 2.6558,9.64721 3.9837,49.13636 1.3279,39.48911 2.6558,84.82351 3.9837,83.46341 1.3279,-1.3602 2.6558,-52.87631 3.98371,-94.88317 1.3279,-42.00686 2.6558,-54.69359 3.9837,-17.9392 1.3279,36.75439 2.6558,107.02227 3.9837,112.47287 1.3279,5.4506 2.6558,-63.57256 3.9837,-107.62036 1.3279,-44.04779 2.6558,-24.7579 3.9837,31.531 1.3279,56.28886 2.6558,97.80166 3.9837,52.79846 1.3279,-45.00313 2.6558,-131.99234 3.9837,-108.45062 1.3279,23.54171 2.6558,135.03532 3.9837,132.05192 1.3279,-2.9835 2.6558,-124.93359 3.9837,-136.20767 1.3279,-11.27408 2.6558,116.66207 3.9837,134.20597 1.3279,17.5439 2.6558,-118.5743 3.9837,-133.70738 1.3279,-15.13308 2.6558,132.71508 3.9837,135.73638 1.3279,3.0213 2.6558,-154.47552 3.9837,-135.05736 1.3279,19.41815 2.6558,170.74106 3.9837,121.19276 1.32791,-49.54827 2.65581,-159.73614 3.98371,-82.20155 1.3279,77.53455 2.6558,99.10515 3.9837,13.81606 1.3279,-85.28913 2.6558,13.21398 3.9837,67.93599 1.3279,54.722 2.6558,-134.84996 3.9837,-122.15129 1.3279,12.69866 2.6558,182.83399 3.9837,103.54189 1.3279,-79.29219 2.6558,-94.96767 3.9837,-8.2504 1.3279,86.7172 2.6558,-81.87296 3.9837,-95.32184 1.3279,-13.44888 2.6558,186.64294 3.9837,108.47564 1.3279,-78.16725 2.6558,-94.65379 3.9837,-8.1654"
       style="fill:none;stroke:#1a1a1a;stroke-width:1;stroke-linecap:round;stroke-linejoin:miter;stroke-miterlimit:4;stroke-opacity:1;stroke-dasharray:none;stroke-dashoffset:0"
       inkscape:connector-curvature="0" />
  </g>
</svg>
