<?xml version="1.0" encoding="UTF-8" standalone="no"?>
<!-- Created with Inkscape (http://www.inkscape.org/) -->

<svg
   xmlns:dc="http://purl.org/dc/elements/1.1/"
   xmlns:cc="http://creativecommons.org/ns#"
   xmlns:rdf="http://www.w3.org/1999/02/22-rdf-syntax-ns#"
   xmlns:svg="http://www.w3.org/2000/svg"
   xmlns="http://www.w3.org/2000/svg"
   xmlns:sodipodi="http://sodipodi.sourceforge.net/DTD/sodipodi-0.dtd"
   xmlns:inkscape="http://www.inkscape.org/namespaces/inkscape"
   width="744.09448819"
   height="1052.3622047"
   id="svg3831"
   version="1.1"
   inkscape:version="0.48.4 r9939"
   sodipodi:docname="New document 4">
  <defs
     id="defs3833">
    <inkscape:path-effect
       effect="spiro"
       id="path-effect5216"
       is_visible="true" />
    <marker
       inkscape:stockid="DotS"
       orient="auto"
       refY="0.0"
       refX="0.0"
       id="DotS"
       style="overflow:visible">
      <path
         id="path4459"
         d="M -2.5,-1.0 C -2.5,1.7600000 -4.7400000,4.0 -7.5,4.0 C -10.260000,4.0 -12.5,1.7600000 -12.5,-1.0 C -12.5,-3.7600000 -10.260000,-6.0 -7.5,-6.0 C -4.7400000,-6.0 -2.5,-3.7600000 -2.5,-1.0 z "
         style="fill-rule:evenodd;stroke:#000000;stroke-width:1.0pt"
         transform="scale(0.2) translate(7.4, 1)" />
    </marker>
    <marker
       inkscape:stockid="DotM"
       orient="auto"
       refY="0.0"
       refX="0.0"
       id="DotM"
       style="overflow:visible">
      <path
         id="path4456"
         d="M -2.5,-1.0 C -2.5,1.7600000 -4.7400000,4.0 -7.5,4.0 C -10.260000,4.0 -12.5,1.7600000 -12.5,-1.0 C -12.5,-3.7600000 -10.260000,-6.0 -7.5,-6.0 C -4.7400000,-6.0 -2.5,-3.7600000 -2.5,-1.0 z "
         style="fill-rule:evenodd;stroke:#000000;stroke-width:1.0pt"
         transform="scale(0.4) translate(7.4, 1)" />
    </marker>
    <marker
       inkscape:stockid="DotL"
       orient="auto"
       refY="0.0"
       refX="0.0"
       id="DotL"
       style="overflow:visible">
      <path
         id="path4453"
         d="M -2.5,-1.0 C -2.5,1.7600000 -4.7400000,4.0 -7.5,4.0 C -10.260000,4.0 -12.5,1.7600000 -12.5,-1.0 C -12.5,-3.7600000 -10.260000,-6.0 -7.5,-6.0 C -4.7400000,-6.0 -2.5,-3.7600000 -2.5,-1.0 z "
         style="fill-rule:evenodd;stroke:#000000;stroke-width:1.0pt"
         transform="scale(0.8) translate(7.4, 1)" />
    </marker>
  </defs>
  <sodipodi:namedview
     id="base"
     pagecolor="#ffffff"
     bordercolor="#666666"
     borderopacity="1.0"
     inkscape:pageopacity="0.0"
     inkscape:pageshadow="2"
     inkscape:zoom="0.98994949"
     inkscape:cx="-141.05307"
     inkscape:cy="886.6554"
     inkscape:document-units="px"
     inkscape:current-layer="layer1"
     showgrid="false"
     inkscape:window-width="954"
     inkscape:window-height="1154"
     inkscape:window-x="0"
     inkscape:window-y="0"
     inkscape:window-maximized="0" />
  <metadata
     id="metadata3836">
    <rdf:RDF>
      <cc:Work
         rdf:about="">
        <dc:format>image/svg+xml</dc:format>
        <dc:type
           rdf:resource="http://purl.org/dc/dcmitype/StillImage" />
        <dc:title></dc:title>
      </cc:Work>
    </rdf:RDF>
  </metadata>
  <g
     inkscape:label="Layer 1"
     inkscape:groupmode="layer"
     id="layer1">
    <path
       style="fill:#ffff00;fill-opacity:1;stroke:#000000;stroke-width:17.29999924;stroke-linecap:round;stroke-linejoin:miter;stroke-miterlimit:4;stroke-opacity:1;stroke-dasharray:none;stroke-dashoffset:0"
       d="M 57.15625 -284.78125 C -88.789045 -284.78125 -212.10161 -211.07187 -252.0625 -109.90625 C -257.0372 -110.29319 -262.07589 -110.5 -267.15625 -110.5 C -367.35648 -110.5 -448.5625 -33.739887 -448.5625 60.9375 C -448.5625 62.850178 -448.50327 64.758682 -448.4375 66.65625 L -260.5625 66.65625 C -254.08718 -2.922712 -195.55193 -57.375 -124.28125 -57.375 C -53.010575 -57.375 5.524684 -2.922712 12 66.65625 L 110.625 66.65625 C 110.38637 63.352493 110.25 60.02085 110.25 56.65625 C 110.25 -18.946129 171.55387 -80.25 247.15625 -80.25 C 322.75863 -80.25 384.03125 -18.946129 384.03125 56.65625 C 384.03125 60.02085 383.89488 63.352493 383.65625 66.65625 L 562.71875 66.65625 C 559.52885 -25.375623 479.61348 -99.0625 381.4375 -99.0625 C 377.73518 -99.0625 374.05363 -98.956601 370.40625 -98.75 C 335.36779 -205.61077 208.41759 -284.78125 57.15625 -284.78125 z "
       id="path3843"
       inkscape:export-filename="/home/josh/path5206.png"
       inkscape:export-xdpi="90"
       inkscape:export-ydpi="90" />
    <path
       sodipodi:type="arc"
       style="fill:#ffff00;fill-opacity:1;stroke:#000000;stroke-width:42.90704727;stroke-linecap:round;stroke-linejoin:miter;stroke-miterlimit:4;stroke-opacity:1;stroke-dasharray:none;stroke-dashoffset:0"
       id="path4363"
       sodipodi:cx="-185.71428"
       sodipodi:cy="278.07648"
       sodipodi:rx="114.28571"
       sodipodi:ry="114.28571"
       d="m -71.428566,278.07648 a 114.28571,114.28571 0 1 1 -228.571424,0 114.28571,114.28571 0 1 1 228.571424,0 z"
       transform="matrix(0.82605845,0,0,0.82605845,30.553714,-145.91666)"
       inkscape:export-filename="/home/josh/path5206.png"
       inkscape:export-xdpi="90"
       inkscape:export-ydpi="90" />
    <path
       style="fill:#ffffff;fill-opacity:1;stroke:#000000;stroke-width:15.46610450999999919;stroke-linecap:round;stroke-linejoin:miter;stroke-miterlimit:4;stroke-opacity:1;stroke-dasharray:none;stroke-dashoffset:0"
       d="M 22.84375 -247.25 C -83.874292 -239.13326 -170.29797 -188.27903 -194.1875 -121.9375 L 22.84375 -121.9375 L 22.84375 -247.25 z "
       id="path4374"
       inkscape:export-filename="/home/josh/path5206.png"
       inkscape:export-xdpi="90"
       inkscape:export-ydpi="90" />
    <path
       id="path4382"
       d="m 82.955357,-247.25 c 106.718043,8.11674 193.141723,58.97097 217.031253,125.3125 l -217.031253,0 0,-125.3125 z"
       style="fill:#ffffff;fill-opacity:1;stroke:#000000;stroke-width:15.46610451;stroke-linecap:round;stroke-linejoin:miter;stroke-miterlimit:4;stroke-opacity:1;stroke-dasharray:none;stroke-dashoffset:0"
       inkscape:connector-curvature="0"
       inkscape:export-filename="/home/josh/path5206.png"
       inkscape:export-xdpi="90"
       inkscape:export-ydpi="90" />
    <path
       style="fill:none;stroke:#000000;stroke-width:13;stroke-linecap:butt;stroke-linejoin:miter;stroke-opacity:1;stroke-miterlimit:4;stroke-dasharray:none;marker-end:url(#DotS)"
       d="M 208.57143,-264.78067 C 280,-410.49496 280,-410.49496 280,-410.49496"
       id="path4386"
       inkscape:connector-curvature="0"
       inkscape:export-filename="/home/josh/path5206.png"
       inkscape:export-xdpi="90"
       inkscape:export-ydpi="90" />
    <path
       transform="matrix(0.82605845,0,0,0.82605845,404.83943,-165.91666)"
       d="m -71.428566,278.07648 a 114.28571,114.28571 0 1 1 -228.571424,0 114.28571,114.28571 0 1 1 228.571424,0 z"
       sodipodi:ry="114.28571"
       sodipodi:rx="114.28571"
       sodipodi:cy="278.07648"
       sodipodi:cx="-185.71428"
       id="path5206"
       style="fill:#ffff00;fill-opacity:1;stroke:#000000;stroke-width:42.90704727;stroke-linecap:round;stroke-linejoin:miter;stroke-miterlimit:4;stroke-opacity:1;stroke-dasharray:none;stroke-dashoffset:0"
       sodipodi:type="arc"
       inkscape:export-xdpi="90"
       inkscape:export-ydpi="90" />
    <path
       sodipodi:type="arc"
       style="fill:#ffffff;fill-opacity:1;stroke:#b3b3b3;stroke-width:20.79999924;stroke-linecap:round;stroke-linejoin:miter;stroke-miterlimit:4;stroke-opacity:1;stroke-dasharray:none;stroke-dashoffset:0"
       id="path5218"
       sodipodi:cx="-301.96429"
       sodipodi:cy="9.3264666"
       sodipodi:rx="57.32143"
       sodipodi:ry="48.035713"
       d="m -244.64286,9.3264666 a 57.32143,48.035713 0 0 1 -7.8242,24.2264944"
       sodipodi:start="0"
       sodipodi:end="0.5286214"
       sodipodi:open="true"
       transform="matrix(-1.3772706,-0.70340196,0.70340196,-1.3772706,-729.66763,-164.38163)"
       inkscape:export-filename="/home/josh/path5206.png"
       inkscape:export-xdpi="90"
       inkscape:export-ydpi="90" />
  </g>
</svg>
