<?xml version="1.0" encoding="UTF-8" standalone="no"?>
<!-- Created with Inkscape (http://www.inkscape.org/) -->

<svg
   xmlns:dc="http://purl.org/dc/elements/1.1/"
   xmlns:cc="http://creativecommons.org/ns#"
   xmlns:rdf="http://www.w3.org/1999/02/22-rdf-syntax-ns#"
   xmlns:svg="http://www.w3.org/2000/svg"
   xmlns="http://www.w3.org/2000/svg"
   xmlns:xlink="http://www.w3.org/1999/xlink"
   xmlns:sodipodi="http://sodipodi.sourceforge.net/DTD/sodipodi-0.dtd"
   xmlns:inkscape="http://www.inkscape.org/namespaces/inkscape"
   width="133.09"
   height="539.35999"
   id="svg4457"
   version="1.1"
   inkscape:version="0.48.4 r9939"
   sodipodi:docname="swr.svg">
  <defs
     id="defs4459">
    <linearGradient
       inkscape:collect="always"
       xlink:href="#linearGradient4420"
       id="linearGradient4426"
       x1="332.59198"
       y1="1480.4167"
       x2="325.14172"
       y2="1970.7588"
       gradientUnits="userSpaceOnUse"
       gradientTransform="matrix(0.27117291,0,0,0.32578702,1081.5684,1344.1619)" />
    <linearGradient
       id="linearGradient4420">
      <stop
         style="stop-color:#ff0000;stop-opacity:1;"
         offset="0"
         id="stop4422" />
      <stop
         style="stop-color:#00f320;stop-opacity:1;"
         offset="1"
         id="stop4424" />
    </linearGradient>
    <linearGradient
       y2="1970.7588"
       x2="325.14172"
       y1="1480.4167"
       x1="332.59198"
       gradientTransform="matrix(0.27117291,0,0,0.32578702,-394.90967,217.9328)"
       gradientUnits="userSpaceOnUse"
       id="linearGradient4455"
       xlink:href="#linearGradient4420"
       inkscape:collect="always" />
  </defs>
  <sodipodi:namedview
     id="base"
     pagecolor="#ffffff"
     bordercolor="#666666"
     borderopacity="1.0"
     inkscape:pageopacity="0.0"
     inkscape:pageshadow="2"
     inkscape:zoom="1.4"
     inkscape:cx="81.676819"
     inkscape:cy="289.47222"
     inkscape:document-units="px"
     inkscape:current-layer="layer1"
     showgrid="false"
     inkscape:window-width="961"
     inkscape:window-height="1154"
     inkscape:window-x="0"
     inkscape:window-y="0"
     inkscape:window-maximized="0" />
  <metadata
     id="metadata4462">
    <rdf:RDF>
      <cc:Work
         rdf:about="">
        <dc:format>image/svg+xml</dc:format>
        <dc:type
           rdf:resource="http://purl.org/dc/dcmitype/StillImage" />
        <dc:title></dc:title>
      </cc:Work>
    </rdf:RDF>
  </metadata>
  <g
     inkscape:label="Layer 1"
     inkscape:groupmode="layer"
     id="layer1"
     transform="translate(0,-513.00063)">
    <path
       inkscape:connector-curvature="0"
       id="path4515"
       d="m 48.928624,594.75692 c 40,0 39.285714,0 39.285714,0"
       style="fill:none;stroke:#000000;stroke-width:1px;stroke-linecap:butt;stroke-linejoin:miter;stroke-opacity:1" />
    <path
       style="fill:none;stroke:#000000;stroke-width:1px;stroke-linecap:butt;stroke-linejoin:miter;stroke-opacity:1"
       d="m 48.928624,606.66937 c 40,0 39.285714,0 39.285714,0"
       id="path4517"
       inkscape:connector-curvature="0" />
    <path
       inkscape:connector-curvature="0"
       id="path4519"
       d="m 48.928624,618.5818 c 40,0 39.285714,0 39.285714,0"
       style="fill:none;stroke:#000000;stroke-width:1px;stroke-linecap:butt;stroke-linejoin:miter;stroke-opacity:1" />
    <path
       style="fill:none;stroke:#000000;stroke-width:1px;stroke-linecap:butt;stroke-linejoin:miter;stroke-opacity:1"
       d="m 48.928624,630.49425 c 40,0 39.285714,0 39.285714,0"
       id="path4521"
       inkscape:connector-curvature="0" />
    <path
       style="fill:none;stroke:#000000;stroke-width:1px;stroke-linecap:butt;stroke-linejoin:miter;stroke-opacity:1"
       d="m 48.928624,642.40671 c 40,0 39.285714,0 39.285714,0"
       id="path4523"
       inkscape:connector-curvature="0" />
    <path
       inkscape:connector-curvature="0"
       id="path4525"
       d="m 48.928624,654.31913 c 40,0 39.285714,0 39.285714,0"
       style="fill:none;stroke:#000000;stroke-width:1px;stroke-linecap:butt;stroke-linejoin:miter;stroke-opacity:1" />
    <path
       inkscape:connector-curvature="0"
       id="path4527"
       d="m 48.928624,666.2316 c 40,0 39.285714,0 39.285714,0"
       style="fill:none;stroke:#000000;stroke-width:1px;stroke-linecap:butt;stroke-linejoin:miter;stroke-opacity:1" />
    <path
       style="fill:none;stroke:#000000;stroke-width:1px;stroke-linecap:butt;stroke-linejoin:miter;stroke-opacity:1"
       d="m 48.928624,678.14404 c 40,0 39.285714,0 39.285714,0"
       id="path4529"
       inkscape:connector-curvature="0" />
    <path
       style="fill:none;stroke:#000000;stroke-width:1px;stroke-linecap:butt;stroke-linejoin:miter;stroke-opacity:1"
       d="m 48.928624,690.05646 c 40,0 39.285714,0 39.285714,0"
       id="path4531"
       inkscape:connector-curvature="0" />
    <path
       inkscape:connector-curvature="0"
       id="path4533"
       d="m 48.928624,701.9689 c 40,0 39.285714,0 39.285714,0"
       style="fill:none;stroke:#000000;stroke-width:1px;stroke-linecap:butt;stroke-linejoin:miter;stroke-opacity:1" />
    <path
       style="fill:none;stroke:#000000;stroke-width:1px;stroke-linecap:butt;stroke-linejoin:miter;stroke-opacity:1"
       d="m 48.928624,713.88135 c 40,0 39.285714,0 39.285714,0"
       id="path4535"
       inkscape:connector-curvature="0" />
    <path
       inkscape:connector-curvature="0"
       id="path4537"
       d="m 48.928624,725.7938 c 40,0 39.285714,0 39.285714,0"
       style="fill:none;stroke:#000000;stroke-width:1px;stroke-linecap:butt;stroke-linejoin:miter;stroke-opacity:1" />
    <path
       inkscape:connector-curvature="0"
       id="path4539"
       d="m 48.928624,737.70624 c 40,0 39.285714,0 39.285714,0"
       style="fill:none;stroke:#000000;stroke-width:1px;stroke-linecap:butt;stroke-linejoin:miter;stroke-opacity:1" />
    <path
       style="fill:none;stroke:#000000;stroke-width:1px;stroke-linecap:butt;stroke-linejoin:miter;stroke-opacity:1"
       d="m 48.928624,749.61869 c 40,0 39.285714,0 39.285714,0"
       id="path4541"
       inkscape:connector-curvature="0" />
    <path
       inkscape:connector-curvature="0"
       id="path4559"
       d="m 48.928624,761.53114 c 40,0 39.285714,0 39.285714,0"
       style="fill:none;stroke:#000000;stroke-width:1px;stroke-linecap:butt;stroke-linejoin:miter;stroke-opacity:1" />
    <path
       style="fill:none;stroke:#000000;stroke-width:1px;stroke-linecap:butt;stroke-linejoin:miter;stroke-opacity:1"
       d="m 48.928624,773.44357 c 40,0 39.285714,0 39.285714,0"
       id="path4561"
       inkscape:connector-curvature="0" />
    <path
       style="fill:none;stroke:#000000;stroke-width:1px;stroke-linecap:butt;stroke-linejoin:miter;stroke-opacity:1"
       d="m 48.928624,785.35602 c 40,0 39.285714,0 39.285714,0"
       id="path4563"
       inkscape:connector-curvature="0" />
    <path
       inkscape:connector-curvature="0"
       id="path4565"
       d="m 48.928624,797.26847 c 40,0 39.285714,0 39.285714,0"
       style="fill:none;stroke:#000000;stroke-width:1px;stroke-linecap:butt;stroke-linejoin:miter;stroke-opacity:1" />
    <path
       style="fill:none;stroke:#000000;stroke-width:1px;stroke-linecap:butt;stroke-linejoin:miter;stroke-opacity:1"
       d="m 48.928624,809.18092 c 40,0 39.285714,0 39.285714,0"
       id="path4567"
       inkscape:connector-curvature="0" />
    <path
       inkscape:connector-curvature="0"
       id="path4569"
       d="m 48.928624,821.09336 c 40,0 39.285714,0 39.285714,0"
       style="fill:none;stroke:#000000;stroke-width:1px;stroke-linecap:butt;stroke-linejoin:miter;stroke-opacity:1" />
    <path
       inkscape:connector-curvature="0"
       id="path4571"
       d="m 48.928624,833.0058 c 40,0 39.285714,0 39.285714,0"
       style="fill:none;stroke:#000000;stroke-width:1px;stroke-linecap:butt;stroke-linejoin:miter;stroke-opacity:1" />
    <path
       style="fill:none;stroke:#000000;stroke-width:1px;stroke-linecap:butt;stroke-linejoin:miter;stroke-opacity:1"
       d="m 48.928624,844.91825 c 40,0 39.285714,0 39.285714,0"
       id="path4573"
       inkscape:connector-curvature="0" />
    <path
       style="fill:none;stroke:#000000;stroke-width:1px;stroke-linecap:butt;stroke-linejoin:miter;stroke-opacity:1"
       d="m 48.928624,856.83069 c 40,0 39.285714,0 39.285714,0"
       id="path4575"
       inkscape:connector-curvature="0" />
    <path
       inkscape:connector-curvature="0"
       id="path4577"
       d="m 48.928624,868.74314 c 40,0 39.285714,0 39.285714,0"
       style="fill:none;stroke:#000000;stroke-width:1px;stroke-linecap:butt;stroke-linejoin:miter;stroke-opacity:1" />
    <path
       inkscape:connector-curvature="0"
       id="path4579"
       d="m 48.928624,880.6556 c 40,0 39.285714,0 39.285714,0"
       style="fill:none;stroke:#000000;stroke-width:1px;stroke-linecap:butt;stroke-linejoin:miter;stroke-opacity:1" />
    <path
       style="fill:none;stroke:#000000;stroke-width:1px;stroke-linecap:butt;stroke-linejoin:miter;stroke-opacity:1"
       d="m 48.928624,892.568 c 40,0 39.285714,0 39.285714,0"
       id="path4581"
       inkscape:connector-curvature="0" />
    <path
       inkscape:connector-curvature="0"
       id="path4583"
       d="m 48.928624,904.4805 c 40,0 39.285714,0 39.285714,0"
       style="fill:none;stroke:#000000;stroke-width:1px;stroke-linecap:butt;stroke-linejoin:miter;stroke-opacity:1" />
    <path
       style="fill:none;stroke:#000000;stroke-width:1px;stroke-linecap:butt;stroke-linejoin:miter;stroke-opacity:1"
       d="m 48.928624,916.3929 c 40,0 39.285714,0 39.285714,0"
       id="path4585"
       inkscape:connector-curvature="0" />
    <path
       style="fill:none;stroke:#000000;stroke-width:1px;stroke-linecap:butt;stroke-linejoin:miter;stroke-opacity:1"
       d="m 48.928624,928.3054 c 40,0 39.285714,0 39.285714,0"
       id="path4587"
       inkscape:connector-curvature="0" />
    <path
       inkscape:connector-curvature="0"
       id="path4589"
       d="m 48.928624,940.2178 c 40,0 39.285714,0 39.285714,0"
       style="fill:none;stroke:#000000;stroke-width:1px;stroke-linecap:butt;stroke-linejoin:miter;stroke-opacity:1" />
    <rect
       style="fill:none;stroke:#1a1a1a;stroke-width:5.19999981;stroke-linecap:round;stroke-linejoin:miter;stroke-miterlimit:4;stroke-opacity:1;stroke-dasharray:none;stroke-dashoffset:0"
       id="rect4509"
       width="82.85714"
       height="394.28571"
       x="25.714285"
       y="45.074272"
       transform="translate(0,513.00063)"
       ry="2.6349218" />
    <path
       style="fill:url(#linearGradient4455);fill-opacity:1;stroke:#1a1a1a;stroke-width:1.54558671;stroke-linecap:round;stroke-linejoin:miter;stroke-miterlimit:4;stroke-opacity:1;stroke-dasharray:none;stroke-dashoffset:0"
       d="m 57.237333,590.9998 c -0.3958,0 -0.7203,0.3898 -0.7203,0.8653 l 0,375.8361 c -11.5696,5.7053 -19.7193,19.3718 -19.7193,35.3276 0,21.0834 14.2289,38.1781 31.778,38.1781 17.5491,0 31.769497,-17.0947 31.769497,-38.1781 0,-16.9491 -9.191097,-31.3212 -21.914097,-36.305 l 0,-374.8587 c 0,-0.4755 -0.3159,-0.8653 -0.7118,-0.8653 l -20.482,0 z"
       id="rect4415"
       inkscape:connector-curvature="0" />
  </g>
</svg>
