<?xml version="1.0" encoding="UTF-8" standalone="no"?>
<!-- Created with Inkscape (http://www.inkscape.org/) -->

<svg
   xmlns:dc="http://purl.org/dc/elements/1.1/"
   xmlns:cc="http://creativecommons.org/ns#"
   xmlns:rdf="http://www.w3.org/1999/02/22-rdf-syntax-ns#"
   xmlns:svg="http://www.w3.org/2000/svg"
   xmlns="http://www.w3.org/2000/svg"
   xmlns:sodipodi="http://sodipodi.sourceforge.net/DTD/sodipodi-0.dtd"
   xmlns:inkscape="http://www.inkscape.org/namespaces/inkscape"
   width="596.09003"
   height="842.35999"
   id="svg5845"
   version="1.1"
   inkscape:version="0.48.4 r9939"
   sodipodi:docname="New document 8">
  <defs
     id="defs5847">
    <clipPath
       clipPathUnits="userSpaceOnUse"
       id="clipPath5775">
      <rect
         style="fill:none;stroke:#ff0000;stroke-width:6.01399994;stroke-linecap:round;stroke-linejoin:miter;stroke-miterlimit:4;stroke-opacity:1;stroke-dasharray:none;stroke-dashoffset:0"
         id="rect5777"
         width="198.57143"
         height="222.85715"
         x="-215.5181"
         y="318.01474"
         transform="matrix(0.91570359,-0.40185437,0.40185437,0.91570359,0,0)" />
    </clipPath>
    <clipPath
       clipPathUnits="userSpaceOnUse"
       id="clipPath5761">
      <rect
         style="fill:none;stroke:#ff0000;stroke-width:6.01399994;stroke-linecap:round;stroke-linejoin:miter;stroke-miterlimit:4;stroke-opacity:1;stroke-dasharray:none;stroke-dashoffset:0"
         id="rect5763"
         width="190.00003"
         height="130"
         x="-616.00714"
         y="477.62747"
         transform="matrix(-0.1018382,-0.99480098,0.99480098,-0.1018382,0,0)" />
    </clipPath>
    <clipPath
       clipPathUnits="userSpaceOnUse"
       id="clipPath5716">
      <rect
         style="fill:none;stroke:#ff0000;stroke-width:6.01399994;stroke-linecap:round;stroke-linejoin:miter;stroke-miterlimit:4;stroke-opacity:1;stroke-dasharray:none;stroke-dashoffset:0"
         id="rect5718"
         width="241.42857"
         height="237.14285"
         x="-58.035778"
         y="350.57648" />
    </clipPath>
    <clipPath
       clipPathUnits="userSpaceOnUse"
       id="clipPath5652">
      <rect
         style="fill:none;stroke:#ff0000;stroke-width:3.65366793;stroke-linecap:round;stroke-linejoin:miter;stroke-miterlimit:4;stroke-opacity:1;stroke-dasharray:none;stroke-dashoffset:0"
         id="rect5654"
         width="539.39532"
         height="167.96675"
         x="1054.5881"
         y="426.9502"
         inkscape:transform-center-x="181.17092"
         inkscape:transform-center-y="216.36397" />
    </clipPath>
    <clipPath
       clipPathUnits="userSpaceOnUse"
       id="clipPath5797">
      <rect
         style="fill:none;stroke:#ff0000;stroke-width:3.65366793;stroke-linecap:round;stroke-linejoin:miter;stroke-miterlimit:4;stroke-opacity:1;stroke-dasharray:none;stroke-dashoffset:0"
         id="rect5799"
         width="539.39532"
         height="167.96675"
         x="1054.5881"
         y="426.9502"
         inkscape:transform-center-x="181.17092"
         inkscape:transform-center-y="216.36397" />
    </clipPath>
    <clipPath
       clipPathUnits="userSpaceOnUse"
       id="clipPath5801">
      <rect
         style="fill:none;stroke:#ff0000;stroke-width:3.65366793;stroke-linecap:round;stroke-linejoin:miter;stroke-miterlimit:4;stroke-opacity:1;stroke-dasharray:none;stroke-dashoffset:0"
         id="rect5803"
         width="539.39532"
         height="167.96675"
         x="1054.5881"
         y="426.9502"
         inkscape:transform-center-x="181.17092"
         inkscape:transform-center-y="216.36397" />
    </clipPath>
    <clipPath
       clipPathUnits="userSpaceOnUse"
       id="clipPath5805">
      <rect
         style="fill:none;stroke:#ff0000;stroke-width:3.65366793;stroke-linecap:round;stroke-linejoin:miter;stroke-miterlimit:4;stroke-opacity:1;stroke-dasharray:none;stroke-dashoffset:0"
         id="rect5807"
         width="539.39532"
         height="167.96675"
         x="1054.5881"
         y="426.9502"
         inkscape:transform-center-x="181.17092"
         inkscape:transform-center-y="216.36397" />
    </clipPath>
  </defs>
  <sodipodi:namedview
     id="base"
     pagecolor="#ffffff"
     bordercolor="#666666"
     borderopacity="1.0"
     inkscape:pageopacity="0.0"
     inkscape:pageshadow="2"
     inkscape:zoom="0.7"
     inkscape:cx="386.7154"
     inkscape:cy="282.1712"
     inkscape:document-units="px"
     inkscape:current-layer="layer1"
     showgrid="false"
     inkscape:window-width="954"
     inkscape:window-height="1174"
     inkscape:window-x="960"
     inkscape:window-y="0"
     inkscape:window-maximized="0" />
  <metadata
     id="metadata5850">
    <rdf:RDF>
      <cc:Work
         rdf:about="">
        <dc:format>image/svg+xml</dc:format>
        <dc:type
           rdf:resource="http://purl.org/dc/dcmitype/StillImage" />
        <dc:title></dc:title>
      </cc:Work>
    </rdf:RDF>
  </metadata>
  <g
     inkscape:label="Layer 1"
     inkscape:groupmode="layer"
     id="layer1"
     transform="translate(0,-210.00208)">
    <g
       id="g6034"
       transform="translate(-74.285714,97.142857)">
      <g
         transform="translate(14.2857,131.42857)"
         id="g5958">
        <g
           clip-path="url(#clipPath5652)"
           id="g5680"
           transform="translate(-999.87446,-421.42849)">
          <g
             transform="translate(1095.7143,42.857143)"
             id="g5682"
             style="stroke:#ff0000">
            <path
               sodipodi:nodetypes="cssssssc"
               inkscape:connector-curvature="0"
               inkscape:export-ydpi="90"
               inkscape:export-xdpi="90"
               style="fill:none;stroke:#ff0000;stroke-width:2.33453178;stroke-linecap:round;stroke-linejoin:miter;stroke-miterlimit:4;stroke-opacity:1;stroke-dasharray:none;stroke-dashoffset:0"
               d="m -26.226661,446.4018 c 11.937894,-10.9691 23.8757893,-20.30244 35.8136823,-17.87119 11.9378987,2.43127 23.8757907,15.93752 35.8136827,25.82461 11.937902,9.8871 23.875791,13.20958 35.813686,6.37815 11.937895,-6.83143 23.87578,-21.81632 35.81368,-28.66315 11.93789,-6.84681 23.87578,-3.50039 35.81368,6.37815 11.93789,9.87855 23.87579,23.37415 35.81368,25.82461 11.9379,2.45046 23.87581,-6.90207 35.81366,-17.87118"
               title="sin(x)"
               id="path5684" />
            <path
               id="path5686"
               title="sin(x)"
               d="m 220.12429,450.31614 c 11.93789,-10.9691 23.87579,-20.30244 35.81368,-17.87119 11.9379,2.43127 23.87579,15.93752 35.81369,25.82461 11.9379,9.8871 23.87579,13.20958 35.81368,6.37815 11.9379,-6.83143 23.87578,-21.81632 35.81368,-28.66315 11.93789,-6.84681 23.87578,-3.50039 35.81368,6.37815 11.93789,9.87855 23.87579,23.37415 35.81368,25.82461 11.9379,2.45046 23.87581,-6.90207 35.81366,-17.87118"
               style="fill:none;stroke:#ff0000;stroke-width:2.33453178;stroke-linecap:round;stroke-linejoin:miter;stroke-miterlimit:4;stroke-opacity:1;stroke-dasharray:none;stroke-dashoffset:0"
               inkscape:export-xdpi="90"
               inkscape:export-ydpi="90"
               inkscape:connector-curvature="0"
               sodipodi:nodetypes="cssssssc" />
            <path
               sodipodi:nodetypes="cssssssc"
               inkscape:connector-curvature="0"
               inkscape:export-ydpi="90"
               inkscape:export-xdpi="90"
               style="fill:none;stroke:#ff0000;stroke-width:2.33453178;stroke-linecap:round;stroke-linejoin:miter;stroke-miterlimit:4;stroke-opacity:1;stroke-dasharray:none;stroke-dashoffset:0"
               d="m 468.5658,452.39246 c 11.93789,-10.9691 23.87579,-20.30244 35.81368,-17.87119 11.9379,2.43127 23.87579,15.93752 35.81369,25.82461 11.9379,9.8871 23.87579,13.20958 35.81368,6.37815 11.9379,-6.83143 23.87578,-21.81632 35.81368,-28.66315 11.93789,-6.84681 23.87578,-3.50039 35.81368,6.37815 11.93789,9.87855 23.87579,23.37415 35.81368,25.82461 11.9379,2.45046 23.87581,-6.90207 35.81366,-17.87118"
               title="sin(x)"
               id="path5688" />
          </g>
          <rect
             y="688.15942"
             x="1113.877"
             height="730.68701"
             width="519.42761"
             id="rect5690"
             style="fill:#ffff00;fill-opacity:1;stroke:#000000;stroke-width:6.02187395;stroke-linecap:round;stroke-linejoin:miter;stroke-miterlimit:4;stroke-opacity:1;stroke-dasharray:none;stroke-dashoffset:0"
             transform="matrix(0.93465714,-0.35555032,0.4221487,0.9065266,0,0)" />
        </g>
      </g>
      <flowRoot
         style="font-size:22px;font-style:normal;font-variant:normal;font-weight:normal;font-stretch:normal;line-height:125%;letter-spacing:0px;word-spacing:0px;fill:#000000;fill-opacity:1;stroke:none;font-family:Garuda;-inkscape-font-specification:Garuda"
         id="flowRoot6002"
         xml:space="preserve"><flowRegion
           id="flowRegion6004"><rect
             y="119.50504"
             x="85.714287"
             height="68.571426"
             width="315.71429"
             id="rect6006" /></flowRegion><flowPara
           style="font-size:48px"
           id="flowPara6008">ABSORBED</flowPara></flowRoot>    </g>
    <g
       id="g6047"
       transform="translate(-74.285714,60.984393)">
      <g
         transform="translate(0,87.61908)"
         id="g5966">
        <g
           transform="translate(-985.58876,-129.99996)"
           id="g5668"
           clip-path="url(#clipPath5652)">
          <g
             style="stroke:#ff0000"
             id="g5670"
             transform="translate(1095.7143,42.857143)">
            <path
               id="path5672"
               title="sin(x)"
               d="m -26.226661,446.4018 c 11.937894,-10.9691 23.8757893,-20.30244 35.8136823,-17.87119 11.9378987,2.43127 23.8757907,15.93752 35.8136827,25.82461 11.937902,9.8871 23.875791,13.20958 35.813686,6.37815 11.937895,-6.83143 23.87578,-21.81632 35.81368,-28.66315 11.93789,-6.84681 23.87578,-3.50039 35.81368,6.37815 11.93789,9.87855 23.87579,23.37415 35.81368,25.82461 11.9379,2.45046 23.87581,-6.90207 35.81366,-17.87118"
               style="fill:none;stroke:#ff0000;stroke-width:2.33453178;stroke-linecap:round;stroke-linejoin:miter;stroke-miterlimit:4;stroke-opacity:1;stroke-dasharray:none;stroke-dashoffset:0"
               inkscape:export-xdpi="90"
               inkscape:export-ydpi="90"
               inkscape:connector-curvature="0"
               sodipodi:nodetypes="cssssssc" />
            <path
               sodipodi:nodetypes="cssssssc"
               inkscape:connector-curvature="0"
               inkscape:export-ydpi="90"
               inkscape:export-xdpi="90"
               style="fill:none;stroke:#ff0000;stroke-width:2.33453178;stroke-linecap:round;stroke-linejoin:miter;stroke-miterlimit:4;stroke-opacity:1;stroke-dasharray:none;stroke-dashoffset:0"
               d="m 220.12429,450.31614 c 11.93789,-10.9691 23.87579,-20.30244 35.81368,-17.87119 11.9379,2.43127 23.87579,15.93752 35.81369,25.82461 11.9379,9.8871 23.87579,13.20958 35.81368,6.37815 11.9379,-6.83143 23.87578,-21.81632 35.81368,-28.66315 11.93789,-6.84681 23.87578,-3.50039 35.81368,6.37815 11.93789,9.87855 23.87579,23.37415 35.81368,25.82461 11.9379,2.45046 23.87581,-6.90207 35.81366,-17.87118"
               title="sin(x)"
               id="path5674" />
            <path
               id="path5676"
               title="sin(x)"
               d="m 468.5658,452.39246 c 11.93789,-10.9691 23.87579,-20.30244 35.81368,-17.87119 11.9379,2.43127 23.87579,15.93752 35.81369,25.82461 11.9379,9.8871 23.87579,13.20958 35.81368,6.37815 11.9379,-6.83143 23.87578,-21.81632 35.81368,-28.66315 11.93789,-6.84681 23.87578,-3.50039 35.81368,6.37815 11.93789,9.87855 23.87579,23.37415 35.81368,25.82461 11.9379,2.45046 23.87581,-6.90207 35.81366,-17.87118"
               style="fill:none;stroke:#ff0000;stroke-width:2.33453178;stroke-linecap:round;stroke-linejoin:miter;stroke-miterlimit:4;stroke-opacity:1;stroke-dasharray:none;stroke-dashoffset:0"
               inkscape:export-xdpi="90"
               inkscape:export-ydpi="90"
               inkscape:connector-curvature="0"
               sodipodi:nodetypes="cssssssc" />
          </g>
          <rect
             transform="matrix(0.93465714,-0.35555032,0.4221487,0.9065266,0,0)"
             style="fill:#ffff00;fill-opacity:1;stroke:#000000;stroke-width:6.02187395;stroke-linecap:round;stroke-linejoin:miter;stroke-miterlimit:4;stroke-opacity:1;stroke-dasharray:none;stroke-dashoffset:0"
             id="rect5678"
             width="519.42761"
             height="730.68701"
             x="1113.877"
             y="688.15942" />
        </g>
        <g
           style="stroke:#ff0000"
           id="g5765"
           transform="matrix(0.91570358,0.40185437,-0.40185437,0.91570358,671.35794,-44.223936)"
           clip-path="url(#clipPath5775)">
          <path
             id="path5767"
             title="sin(x)"
             d="m -26.226661,446.4018 c 11.937894,-10.9691 23.8757893,-20.30244 35.8136823,-17.87119 11.9378987,2.43127 23.8757907,15.93752 35.8136827,25.82461 11.937902,9.8871 23.875791,13.20958 35.813686,6.37815 11.937895,-6.83143 23.87578,-21.81632 35.81368,-28.66315 11.93789,-6.84681 23.87578,-3.50039 35.81368,6.37815 11.93789,9.87855 23.87579,23.37415 35.81368,25.82461 11.9379,2.45046 23.87581,-6.90207 35.81366,-17.87118"
             style="fill:none;stroke:#ff0000;stroke-width:2.33453178;stroke-linecap:round;stroke-linejoin:miter;stroke-miterlimit:4;stroke-opacity:1;stroke-dasharray:none;stroke-dashoffset:0"
             inkscape:export-xdpi="90"
             inkscape:export-ydpi="90"
             inkscape:connector-curvature="0"
             sodipodi:nodetypes="cssssssc" />
          <path
             sodipodi:nodetypes="cssssssc"
             inkscape:connector-curvature="0"
             inkscape:export-ydpi="90"
             inkscape:export-xdpi="90"
             style="fill:none;stroke:#ff0000;stroke-width:2.33453178;stroke-linecap:round;stroke-linejoin:miter;stroke-miterlimit:4;stroke-opacity:1;stroke-dasharray:none;stroke-dashoffset:0"
             d="m 220.12429,450.31614 c 11.93789,-10.9691 23.87579,-20.30244 35.81368,-17.87119 11.9379,2.43127 23.87579,15.93752 35.81369,25.82461 11.9379,9.8871 23.87579,13.20958 35.81368,6.37815 11.9379,-6.83143 23.87578,-21.81632 35.81368,-28.66315 11.93789,-6.84681 23.87578,-3.50039 35.81368,6.37815 11.93789,9.87855 23.87579,23.37415 35.81368,25.82461 11.9379,2.45046 23.87581,-6.90207 35.81366,-17.87118"
             title="sin(x)"
             id="path5769" />
          <path
             id="path5771"
             title="sin(x)"
             d="m 468.5658,452.39246 c 11.93789,-10.9691 23.87579,-20.30244 35.81368,-17.87119 11.9379,2.43127 23.87579,15.93752 35.81369,25.82461 11.9379,9.8871 23.87579,13.20958 35.81368,6.37815 11.9379,-6.83143 23.87578,-21.81632 35.81368,-28.66315 11.93789,-6.84681 23.87578,-3.50039 35.81368,6.37815 11.93789,9.87855 23.87579,23.37415 35.81368,25.82461 11.9379,2.45046 23.87581,-6.90207 35.81366,-17.87118"
             style="fill:none;stroke:#ff0000;stroke-width:2.33453178;stroke-linecap:round;stroke-linejoin:miter;stroke-miterlimit:4;stroke-opacity:1;stroke-dasharray:none;stroke-dashoffset:0"
             inkscape:export-xdpi="90"
             inkscape:export-ydpi="90"
             inkscape:connector-curvature="0"
             sodipodi:nodetypes="cssssssc" />
        </g>
      </g>
      <flowRoot
         transform="translate(-1.4285714,251.42857)"
         xml:space="preserve"
         id="flowRoot6010"
         style="font-size:22px;font-style:normal;font-variant:normal;font-weight:normal;font-stretch:normal;line-height:125%;letter-spacing:0px;word-spacing:0px;fill:#000000;fill-opacity:1;stroke:none;font-family:Garuda;-inkscape-font-specification:Garuda"><flowRegion
           id="flowRegion6012"><rect
             id="rect6014"
             width="315.71429"
             height="68.571426"
             x="85.714287"
             y="119.50504" /></flowRegion><flowPara
           id="flowPara6016"
           style="font-size:48px">REFRACTED</flowPara></flowRoot>    </g>
    <g
       id="g6064"
       transform="translate(-74.285714,27.683032)">
      <g
         transform="translate(-31.4286,26.666687)"
         id="g5978">
        <g
           clip-path="url(#clipPath5652)"
           id="g5656"
           transform="translate(-954.16016,178.57147)">
          <g
             transform="translate(1095.7143,42.857143)"
             id="g5658"
             style="stroke:#ff0000">
            <path
               sodipodi:nodetypes="cssssssc"
               inkscape:connector-curvature="0"
               inkscape:export-ydpi="90"
               inkscape:export-xdpi="90"
               style="fill:none;stroke:#ff0000;stroke-width:2.33453178;stroke-linecap:round;stroke-linejoin:miter;stroke-miterlimit:4;stroke-opacity:1;stroke-dasharray:none;stroke-dashoffset:0"
               d="m -26.226661,446.4018 c 11.937894,-10.9691 23.8757893,-20.30244 35.8136823,-17.87119 11.9378987,2.43127 23.8757907,15.93752 35.8136827,25.82461 11.937902,9.8871 23.875791,13.20958 35.813686,6.37815 11.937895,-6.83143 23.87578,-21.81632 35.81368,-28.66315 11.93789,-6.84681 23.87578,-3.50039 35.81368,6.37815 11.93789,9.87855 23.87579,23.37415 35.81368,25.82461 11.9379,2.45046 23.87581,-6.90207 35.81366,-17.87118"
               title="sin(x)"
               id="path5660" />
            <path
               id="path5662"
               title="sin(x)"
               d="m 220.12429,450.31614 c 11.93789,-10.9691 23.87579,-20.30244 35.81368,-17.87119 11.9379,2.43127 23.87579,15.93752 35.81369,25.82461 11.9379,9.8871 23.87579,13.20958 35.81368,6.37815 11.9379,-6.83143 23.87578,-21.81632 35.81368,-28.66315 11.93789,-6.84681 23.87578,-3.50039 35.81368,6.37815 11.93789,9.87855 23.87579,23.37415 35.81368,25.82461 11.9379,2.45046 23.87581,-6.90207 35.81366,-17.87118"
               style="fill:none;stroke:#ff0000;stroke-width:2.33453178;stroke-linecap:round;stroke-linejoin:miter;stroke-miterlimit:4;stroke-opacity:1;stroke-dasharray:none;stroke-dashoffset:0"
               inkscape:export-xdpi="90"
               inkscape:export-ydpi="90"
               inkscape:connector-curvature="0"
               sodipodi:nodetypes="cssssssc" />
            <path
               sodipodi:nodetypes="cssssssc"
               inkscape:connector-curvature="0"
               inkscape:export-ydpi="90"
               inkscape:export-xdpi="90"
               style="fill:none;stroke:#ff0000;stroke-width:2.33453178;stroke-linecap:round;stroke-linejoin:miter;stroke-miterlimit:4;stroke-opacity:1;stroke-dasharray:none;stroke-dashoffset:0"
               d="m 468.5658,452.39246 c 11.93789,-10.9691 23.87579,-20.30244 35.81368,-17.87119 11.9379,2.43127 23.87579,15.93752 35.81369,25.82461 11.9379,9.8871 23.87579,13.20958 35.81368,6.37815 11.9379,-6.83143 23.87578,-21.81632 35.81368,-28.66315 11.93789,-6.84681 23.87578,-3.50039 35.81368,6.37815 11.93789,9.87855 23.87579,23.37415 35.81368,25.82461 11.9379,2.45046 23.87581,-6.90207 35.81366,-17.87118"
               title="sin(x)"
               id="path5664" />
          </g>
          <rect
             y="688.15942"
             x="1113.877"
             height="730.68701"
             width="519.42761"
             id="rect5666"
             style="fill:#ffff00;fill-opacity:1;stroke:#000000;stroke-width:6.02187395;stroke-linecap:round;stroke-linejoin:miter;stroke-miterlimit:4;stroke-opacity:1;stroke-dasharray:none;stroke-dashoffset:0"
             transform="matrix(0.93465714,-0.35555032,0.4221487,0.9065266,0,0)" />
        </g>
        <g
           style="stroke:#ff0000"
           id="g5751"
           transform="matrix(-0.1018382,0.99480098,-0.99480098,-0.1018382,997.56124,189.02047)"
           clip-path="url(#clipPath5761)">
          <path
             id="path5753"
             title="sin(x)"
             d="m -26.226661,446.4018 c 11.937894,-10.9691 23.8757893,-20.30244 35.8136823,-17.87119 11.9378987,2.43127 23.8757907,15.93752 35.8136827,25.82461 11.937902,9.8871 23.875791,13.20958 35.813686,6.37815 11.937895,-6.83143 23.87578,-21.81632 35.81368,-28.66315 11.93789,-6.84681 23.87578,-3.50039 35.81368,6.37815 11.93789,9.87855 23.87579,23.37415 35.81368,25.82461 11.9379,2.45046 23.87581,-6.90207 35.81366,-17.87118"
             style="fill:none;stroke:#ff0000;stroke-width:2.33453178;stroke-linecap:round;stroke-linejoin:miter;stroke-miterlimit:4;stroke-opacity:1;stroke-dasharray:none;stroke-dashoffset:0"
             inkscape:export-xdpi="90"
             inkscape:export-ydpi="90"
             inkscape:connector-curvature="0"
             sodipodi:nodetypes="cssssssc" />
          <path
             sodipodi:nodetypes="cssssssc"
             inkscape:connector-curvature="0"
             inkscape:export-ydpi="90"
             inkscape:export-xdpi="90"
             style="fill:none;stroke:#ff0000;stroke-width:2.33453178;stroke-linecap:round;stroke-linejoin:miter;stroke-miterlimit:4;stroke-opacity:1;stroke-dasharray:none;stroke-dashoffset:0"
             d="m 220.12429,450.31614 c 11.93789,-10.9691 23.87579,-20.30244 35.81368,-17.87119 11.9379,2.43127 23.87579,15.93752 35.81369,25.82461 11.9379,9.8871 23.87579,13.20958 35.81368,6.37815 11.9379,-6.83143 23.87578,-21.81632 35.81368,-28.66315 11.93789,-6.84681 23.87578,-3.50039 35.81368,6.37815 11.93789,9.87855 23.87579,23.37415 35.81368,25.82461 11.9379,2.45046 23.87581,-6.90207 35.81366,-17.87118"
             title="sin(x)"
             id="path5755" />
          <path
             id="path5757"
             title="sin(x)"
             d="m 468.5658,452.39246 c 11.93789,-10.9691 23.87579,-20.30244 35.81368,-17.87119 11.9379,2.43127 23.87579,15.93752 35.81369,25.82461 11.9379,9.8871 23.87579,13.20958 35.81368,6.37815 11.9379,-6.83143 23.87578,-21.81632 35.81368,-28.66315 11.93789,-6.84681 23.87578,-3.50039 35.81368,6.37815 11.93789,9.87855 23.87579,23.37415 35.81368,25.82461 11.9379,2.45046 23.87581,-6.90207 35.81366,-17.87118"
             style="fill:none;stroke:#ff0000;stroke-width:2.33453178;stroke-linecap:round;stroke-linejoin:miter;stroke-miterlimit:4;stroke-opacity:1;stroke-dasharray:none;stroke-dashoffset:0"
             inkscape:export-xdpi="90"
             inkscape:export-ydpi="90"
             inkscape:connector-curvature="0"
             sodipodi:nodetypes="cssssssc" />
        </g>
      </g>
      <flowRoot
         style="font-size:22px;font-style:normal;font-variant:normal;font-weight:normal;font-stretch:normal;line-height:125%;letter-spacing:0px;word-spacing:0px;fill:#000000;fill-opacity:1;stroke:none;font-family:Garuda;-inkscape-font-specification:Garuda"
         id="flowRoot6018"
         xml:space="preserve"
         transform="translate(2.9325188e-8,500)"><flowRegion
           id="flowRegion6020"><rect
             y="119.50504"
             x="85.714287"
             height="68.571426"
             width="315.71429"
             id="rect6022" /></flowRegion><flowPara
           style="font-size:48px"
           id="flowPara6024">REFLECTED</flowPara></flowRoot>    </g>
    <g
       id="g6081"
       transform="translate(-74.285714,-1.4285714)">
      <g
         transform="translate(-51.4286,0)"
         id="g5990">
        <g
           transform="translate(-934.16016,452.85718)"
           id="g5645"
           clip-path="url(#clipPath5652)">
          <g
             style="stroke:#ff0000"
             id="g5560"
             transform="translate(1095.7143,42.857143)">
            <path
               id="path5562"
               title="sin(x)"
               d="m -26.226661,446.4018 c 11.937894,-10.9691 23.8757893,-20.30244 35.8136823,-17.87119 11.9378987,2.43127 23.8757907,15.93752 35.8136827,25.82461 11.937902,9.8871 23.875791,13.20958 35.813686,6.37815 11.937895,-6.83143 23.87578,-21.81632 35.81368,-28.66315 11.93789,-6.84681 23.87578,-3.50039 35.81368,6.37815 11.93789,9.87855 23.87579,23.37415 35.81368,25.82461 11.9379,2.45046 23.87581,-6.90207 35.81366,-17.87118"
               style="fill:none;stroke:#ff0000;stroke-width:2.33453178;stroke-linecap:round;stroke-linejoin:miter;stroke-miterlimit:4;stroke-opacity:1;stroke-dasharray:none;stroke-dashoffset:0"
               inkscape:export-xdpi="90"
               inkscape:export-ydpi="90"
               inkscape:connector-curvature="0"
               sodipodi:nodetypes="cssssssc" />
            <path
               sodipodi:nodetypes="cssssssc"
               inkscape:connector-curvature="0"
               inkscape:export-ydpi="90"
               inkscape:export-xdpi="90"
               style="fill:none;stroke:#ff0000;stroke-width:2.33453178;stroke-linecap:round;stroke-linejoin:miter;stroke-miterlimit:4;stroke-opacity:1;stroke-dasharray:none;stroke-dashoffset:0"
               d="m 220.12429,450.31614 c 11.93789,-10.9691 23.87579,-20.30244 35.81368,-17.87119 11.9379,2.43127 23.87579,15.93752 35.81369,25.82461 11.9379,9.8871 23.87579,13.20958 35.81368,6.37815 11.9379,-6.83143 23.87578,-21.81632 35.81368,-28.66315 11.93789,-6.84681 23.87578,-3.50039 35.81368,6.37815 11.93789,9.87855 23.87579,23.37415 35.81368,25.82461 11.9379,2.45046 23.87581,-6.90207 35.81366,-17.87118"
               title="sin(x)"
               id="path5564" />
            <path
               id="path5566"
               title="sin(x)"
               d="m 468.5658,452.39246 c 11.93789,-10.9691 23.87579,-20.30244 35.81368,-17.87119 11.9379,2.43127 23.87579,15.93752 35.81369,25.82461 11.9379,9.8871 23.87579,13.20958 35.81368,6.37815 11.9379,-6.83143 23.87578,-21.81632 35.81368,-28.66315 11.93789,-6.84681 23.87578,-3.50039 35.81368,6.37815 11.93789,9.87855 23.87579,23.37415 35.81368,25.82461 11.9379,2.45046 23.87581,-6.90207 35.81366,-17.87118"
               style="fill:none;stroke:#ff0000;stroke-width:2.33453178;stroke-linecap:round;stroke-linejoin:miter;stroke-miterlimit:4;stroke-opacity:1;stroke-dasharray:none;stroke-dashoffset:0"
               inkscape:export-xdpi="90"
               inkscape:export-ydpi="90"
               inkscape:connector-curvature="0"
               sodipodi:nodetypes="cssssssc" />
          </g>
          <rect
             transform="matrix(0.93465714,-0.35555032,0.4221487,0.9065266,0,0)"
             style="fill:#ffff00;fill-opacity:1;stroke:#000000;stroke-width:6.02187395;stroke-linecap:round;stroke-linejoin:miter;stroke-miterlimit:4;stroke-opacity:1;stroke-dasharray:none;stroke-dashoffset:0"
             id="rect5568"
             width="519.42761"
             height="730.68701"
             x="1113.877"
             y="688.15942" />
        </g>
        <g
           style="stroke:#ff0000"
           id="g5699"
           transform="translate(531.01844,501.78576)"
           clip-path="url(#clipPath5716)">
          <path
             id="path5701"
             title="sin(x)"
             d="m -26.226661,446.4018 c 11.937894,-10.9691 23.8757893,-20.30244 35.8136823,-17.87119 11.9378987,2.43127 23.8757907,15.93752 35.8136827,25.82461 11.937902,9.8871 23.875791,13.20958 35.813686,6.37815 11.937895,-6.83143 23.87578,-21.81632 35.81368,-28.66315 11.93789,-6.84681 23.87578,-3.50039 35.81368,6.37815 11.93789,9.87855 23.87579,23.37415 35.81368,25.82461 11.9379,2.45046 23.87581,-6.90207 35.81366,-17.87118"
             style="fill:none;stroke:#ff0000;stroke-width:2.33453178;stroke-linecap:round;stroke-linejoin:miter;stroke-miterlimit:4;stroke-opacity:1;stroke-dasharray:none;stroke-dashoffset:0"
             inkscape:export-xdpi="90"
             inkscape:export-ydpi="90"
             inkscape:connector-curvature="0"
             sodipodi:nodetypes="cssssssc" />
          <path
             sodipodi:nodetypes="cssssssc"
             inkscape:connector-curvature="0"
             inkscape:export-ydpi="90"
             inkscape:export-xdpi="90"
             style="fill:none;stroke:#ff0000;stroke-width:2.33453178;stroke-linecap:round;stroke-linejoin:miter;stroke-miterlimit:4;stroke-opacity:1;stroke-dasharray:none;stroke-dashoffset:0"
             d="m 220.12429,450.31614 c 11.93789,-10.9691 23.87579,-20.30244 35.81368,-17.87119 11.9379,2.43127 23.87579,15.93752 35.81369,25.82461 11.9379,9.8871 23.87579,13.20958 35.81368,6.37815 11.9379,-6.83143 23.87578,-21.81632 35.81368,-28.66315 11.93789,-6.84681 23.87578,-3.50039 35.81368,6.37815 11.93789,9.87855 23.87579,23.37415 35.81368,25.82461 11.9379,2.45046 23.87581,-6.90207 35.81366,-17.87118"
             title="sin(x)"
             id="path5703" />
          <path
             id="path5705"
             title="sin(x)"
             d="m 468.5658,452.39246 c 11.93789,-10.9691 23.87579,-20.30244 35.81368,-17.87119 11.9379,2.43127 23.87579,15.93752 35.81369,25.82461 11.9379,9.8871 23.87579,13.20958 35.81368,6.37815 11.9379,-6.83143 23.87578,-21.81632 35.81368,-28.66315 11.93789,-6.84681 23.87578,-3.50039 35.81368,6.37815 11.93789,9.87855 23.87579,23.37415 35.81368,25.82461 11.9379,2.45046 23.87581,-6.90207 35.81366,-17.87118"
             style="fill:none;stroke:#ff0000;stroke-width:2.33453178;stroke-linecap:round;stroke-linejoin:miter;stroke-miterlimit:4;stroke-opacity:1;stroke-dasharray:none;stroke-dashoffset:0"
             inkscape:export-xdpi="90"
             inkscape:export-ydpi="90"
             inkscape:connector-curvature="0"
             sodipodi:nodetypes="cssssssc" />
        </g>
      </g>
      <flowRoot
         transform="translate(1.4285715,744.28571)"
         xml:space="preserve"
         id="flowRoot6026"
         style="font-size:22px;font-style:normal;font-variant:normal;font-weight:normal;font-stretch:normal;line-height:125%;letter-spacing:0px;word-spacing:0px;fill:#000000;fill-opacity:1;stroke:none;font-family:Garuda;-inkscape-font-specification:Garuda"><flowRegion
           id="flowRegion6028"><rect
             id="rect6030"
             width="362.85715"
             height="68.571434"
             x="85.714287"
             y="119.50504" /></flowRegion><flowPara
           id="flowPara6032"
           style="font-size:48px">TRANSMITTED</flowPara></flowRoot>    </g>
  </g>
</svg>
